<?xml version="1.0" encoding="utf-8"?>
<!-- Generator: Adobe Illustrator 23.0.0, SVG Export Plug-In . SVG Version: 6.00 Build 0)  -->
<svg version="1.1" xmlns="http://www.w3.org/2000/svg" xmlns:xlink="http://www.w3.org/1999/xlink" x="0px" y="0px"
	 viewBox="0 0 1016.1 556.3" style="enable-background:new 0 0 1016.1 556.3;" xml:space="preserve">
<style type="text/css">
	.st0{fill:url(#XMLID_8_);}
	.st1{display:none;}
	.st2{display:inline;fill:#3D3D3D;}
	.st3{opacity:0.6;fill:#F9F2F9;}
	.st4{opacity:0.99;fill:#F4F4F4;}
	.st5{fill:#655666;}
	.st6{opacity:0.5;fill:#3D3D3D;}
	.st7{opacity:0.65;fill:#EFEFEF;}
	.st8{fill:#E6CDE8;}
	.st9{fill:#E7D1E8;}
	.st10{fill:#D680E0;}
	.st11{fill:#D5B4D8;}
	.st12{fill:#EDD8EF;}
	.st13{fill:#E3C1E5;}
	.st14{fill:#E0DEE0;}
	.st15{fill:#DBD9DB;}
	.st16{fill:#A3A2A2;}
	.st17{fill:none;}
	.st18{fill:#F2F2F2;}
	.st19{fill:#DDDDDD;}
	.st20{opacity:0.75;fill:#EAEAEA;}
	.st21{fill:#282828;}
	.st22{fill:#444344;}
	.st23{fill:#B77ABC;}
	.st24{fill:#231F20;}
	.st25{opacity:0.5;fill:#EFEFEF;}
	.st26{fill:#EFEFEF;}
	.st27{opacity:0.5;fill:#D3D3D3;}
	.st28{fill:#D3D3D3;}
	.st29{opacity:0.5;fill:#F7DC3C;}
	.st30{opacity:0.5;fill:#31EAF4;}
	.st31{opacity:0.5;fill:#ED892E;}
	.st32{opacity:0.5;fill:#353535;}
	.st33{fill:#F7DC3C;}
	.st34{fill:#31EAF4;}
	.st35{fill:#ED892E;}
	.st36{fill:#353535;}
	.st37{fill:#CCCACC;}
	.st38{fill:#3D3D3D;}
</style>
<g id="Layer_1">
	<linearGradient id="XMLID_8_" gradientUnits="userSpaceOnUse" x1="508.0645" y1="556.2581" x2="508.0645" y2="0.8507">
		<stop  offset="0" style="stop-color:#E9FFFF"/>
		<stop  offset="3.460948e-02" style="stop-color:#F2FFFF"/>
		<stop  offset="9.649298e-02" style="stop-color:#FCFFFF"/>
		<stop  offset="0.177" style="stop-color:#FFFFFF"/>
		<stop  offset="0.5154" style="stop-color:#FFFFFF"/>
		<stop  offset="0.5637" style="stop-color:#FFFFFF"/>
		<stop  offset="0.6386" style="stop-color:#FCFDFE"/>
		<stop  offset="0.6989" style="stop-color:#F2F6F9"/>
		<stop  offset="0.7542" style="stop-color:#E1EBF1"/>
		<stop  offset="0.8066" style="stop-color:#C9DCE6"/>
		<stop  offset="0.8568" style="stop-color:#AAC7D8"/>
		<stop  offset="0.9054" style="stop-color:#84AEC6"/>
		<stop  offset="0.9527" style="stop-color:#5791B2"/>
		<stop  offset="0.9979" style="stop-color:#25709A"/>
		<stop  offset="1" style="stop-color:#226E99"/>
	</linearGradient>
	<rect id="XMLID_53_" y="0.9" class="st0" width="1016.1" height="555.4"/>
</g>
<g id="Layer_7" class="st1">
	<circle id="XMLID_6_" class="st2" cx="406.5" cy="592.4" r="27.9"/>
	<circle id="XMLID_22_" class="st2" cx="543.5" cy="600.3" r="33.9"/>
	<circle id="XMLID_31_" class="st2" cx="444.9" cy="594.9" r="33.9"/>
	<circle id="XMLID_34_" class="st2" cx="422.7" cy="618.9" r="33.9"/>
	<circle id="XMLID_37_" class="st2" cx="438.9" cy="640.9" r="33.9"/>
	<circle id="XMLID_38_" class="st2" cx="401.2" cy="637.5" r="33.9"/>
	<circle id="XMLID_41_" class="st2" cx="380.2" cy="639.8" r="33.9"/>
	<circle id="XMLID_33_" class="st2" cx="500.3" cy="597" r="49.2"/>
	<circle id="XMLID_36_" class="st2" cx="501.3" cy="625.6" r="49.2"/>
	<circle id="XMLID_24_" class="st2" cx="568" cy="632.8" r="33.9"/>
	<circle id="XMLID_25_" class="st2" cx="378.6" cy="618.9" r="18.6"/>
	<circle id="XMLID_26_" class="st2" cx="361.5" cy="625.6" r="18.6"/>
	<circle id="XMLID_29_" class="st2" cx="596" cy="634.2" r="18.6"/>
	<circle id="XMLID_30_" class="st2" cx="611.5" cy="651.4" r="18.6"/>
</g>
<g id="Layer_8">
	<path id="XMLID_71_" class="st3" d="M638.9,414.6c-0.6-9.8-8.4-17.7-18.2-18.3c-4.6-7.8-12-13.7-20.9-16.3
		c0-19.7-16-35.6-35.7-35.6c-1.6,0-3.1,0.1-4.7,0.3c-9.5-12.1-24.2-19.9-40.8-19.9c-16.1,0-30.5,7.4-40,18.9
		c-5.4-3.2-11.6-5.1-18.4-5.1c-9.1,0-17.4,3.4-23.7,9c-4.7-3.3-10.5-5.2-16.7-5.2c-16.2,0-29.3,13.1-29.3,29.3
		c0,2.9,0.4,5.7,1.2,8.3c-0.4,0-0.8-0.1-1.2-0.1c-6.1,0-11.6,2.8-15.2,7.3c-0.9-0.1-1.8-0.2-2.7-0.2c-10.8,0-19.6,8.8-19.6,19.6
		c0,4.2,1.4,8.1,3.6,11.3c-0.1,1.2-0.2,2.4-0.2,3.6c0,19.7,16,35.7,35.7,35.7c5.3,0,10.3-1.2,14.8-3.2c2.4,0.5,4.9,0.8,7.4,0.8
		c6.2,0,12.1-1.6,17.1-4.4c6.1,5,14,8,22.5,8c12.1,0,22.7-6,29.2-15.2c9.4,9.3,22.3,15.1,36.5,15.1c17.5,0,32.9-8.6,42.3-21.9
		c6.5,8.2,16.6,13.4,27.9,13.4c10.6,0,20.1-4.6,26.6-11.9c1.9,8.8,9.7,15.4,19.1,15.4c10.8,0,19.6-8.8,19.6-19.6
		C655.2,424.2,648.2,416.1,638.9,414.6z"/>
	<path id="XMLID_2_" class="st4" d="M879.2,61.4c-0.2-3.3-2.8-6-6.1-6.2c-1.5-2.6-4.1-4.6-7.1-5.5c0-6.6-5.4-12-12.1-12
		c-0.5,0-1.1,0-1.6,0.1c-3.2-4.1-8.2-6.7-13.8-6.7c-5.4,0-10.3,2.5-13.5,6.4c-1.8-1.1-3.9-1.7-6.2-1.7c-3.1,0-5.9,1.2-8,3
		c-1.6-1.1-3.5-1.8-5.6-1.8c-5.5,0-9.9,4.4-9.9,9.9c0,1,0.1,1.9,0.4,2.8c-0.1,0-0.3,0-0.4,0c-2.1,0-3.9,1-5.1,2.5
		c-0.3,0-0.6-0.1-0.9-0.1c-3.6,0-6.6,3-6.6,6.6c0,1.4,0.5,2.7,1.2,3.8c0,0.4-0.1,0.8-0.1,1.2c0,6.7,5.4,12.1,12.1,12.1
		c1.8,0,3.5-0.4,5-1.1c0.8,0.2,1.6,0.3,2.5,0.3c2.1,0,4.1-0.5,5.8-1.5c2.1,1.7,4.7,2.7,7.6,2.7c4.1,0,7.7-2,9.9-5.1
		c3.2,3.1,7.5,5.1,12.3,5.1c5.9,0,11.1-2.9,14.3-7.4c2.2,2.8,5.6,4.5,9.4,4.5c3.6,0,6.8-1.6,9-4c0.7,3,3.3,5.2,6.4,5.2
		c3.6,0,6.6-3,6.6-6.6C884.7,64.6,882.3,61.9,879.2,61.4z"/>
	<path id="XMLID_101_" class="st5" d="M679.3,429.8h-20.7c-1.9-8.1-8-14.7-16.1-17.2c-1.9-9.7-9.7-17.2-19.5-18.8
		c-4.7-7.1-11.4-12.5-19.3-15.4c-1.6-20.5-18.9-36.8-39.8-36.8c-0.9,0-1.9,0-2.8,0.1C550.4,329.1,535,322,518.5,322
		c-15.6,0-30.4,6.5-41,17.8c-5.4-2.6-11.3-4-17.4-4c-8.7,0-17.1,2.8-24.1,8.1c-5-2.8-10.6-4.3-16.4-4.3c-18.5,0-33.5,15-33.5,33.5
		c0,1.5,0.1,2.9,0.3,4.4c-4.9,0.8-9.5,3.2-13,6.8c-0.3,0-0.7,0-1,0c-10.5,0-19.5,6.9-22.6,16.4h-21c-1.1,0-2,0.9-2,2
		c0,1.1,0.9,2,2,2h22.3c0.1,0,0.2,0,0.3,0h1.7c1.6-9.2,9.6-16.2,19.3-16.2c0.9,0,1.8,0.1,2.7,0.2c3.6-4.4,9.1-7.3,15.2-7.3
		c0.4,0,0.8,0,1.2,0.1c-0.8-2.6-1.2-5.4-1.2-8.3c0-16.2,13.1-29.3,29.3-29.3c6.2,0,12,1.9,16.7,5.2c6.3-5.6,14.6-9,23.7-9
		c6.7,0,13,1.9,18.4,5.1c9.5-11.6,23.9-18.9,40-18.9c16.6,0,31.3,7.8,40.8,19.9c1.5-0.2,3.1-0.3,4.7-0.3c19.7,0,35.7,15.9,35.7,35.6
		c7.7,2.2,14.3,6.9,18.9,13.2c-11,0.3-20,8.4-21.8,19h-15.5c-0.9,0-1.6,0.7-1.6,1.6s0.7,1.6,1.6,1.6h15.2h3.2
		c0.3-10.5,8.9-19,19.6-19c2.5,0,5,0.4,7.2,1.2c6.9,2.7,11.9,9.2,12.4,17c8.8,1.5,15.6,8.8,16.2,17.9h2.1h2.2h20.1c1.1,0,2-0.9,2-2
		C681.4,430.7,680.5,429.8,679.3,429.8z"/>
	<g id="XMLID_105_">
		<path id="XMLID_72_" class="st5" d="M312.2,397.2h-17.9c-1,0-1.8-0.8-1.8-1.8v-0.2c0-1,0.8-1.8,1.8-1.8h17.9c1,0,1.8,0.8,1.8,1.8
			v0.2C314,396.4,313.2,397.2,312.2,397.2z"/>
		<path id="XMLID_104_" class="st5" d="M671.4,445.1h-42.8c-1,0-1.8-0.8-1.8-1.8v-0.2c0-1,0.8-1.8,1.8-1.8h42.8c1,0,1.8,0.8,1.8,1.8
			v0.2C673.2,444.3,672.4,445.1,671.4,445.1z"/>
		<path id="XMLID_103_" class="st5" d="M318.9,404.2h-12.7c-1,0-1.8-0.8-1.8-1.8v-0.2c0-1,0.8-1.8,1.8-1.8h12.7c1,0,1.8,0.8,1.8,1.8
			v0.2C320.7,403.4,319.9,404.2,318.9,404.2z"/>
	</g>
	<path id="XMLID_110_" class="st5" d="M353,450.3h-30.8c-1,0-1.8-0.8-1.8-1.8v-0.2c0-1,0.8-1.8,1.8-1.8H353c1,0,1.8,0.8,1.8,1.8v0.2
		C354.8,449.5,354,450.3,353,450.3z"/>
	<path id="XMLID_109_" class="st5" d="M567.7,408h-18.5c-1,0-1.8-0.8-1.8-1.8v-0.2c0-1,0.8-1.8,1.8-1.8h18.5c1,0,1.8,0.8,1.8,1.8
		v0.2C569.6,407.2,568.7,408,567.7,408z"/>
	<path id="XMLID_108_" class="st5" d="M390.7,459.6h-46.9c-1,0-1.8-0.8-1.8-1.8v-0.2c0-1,0.8-1.8,1.8-1.8h46.9c1,0,1.8,0.8,1.8,1.8
		v0.2C392.5,458.8,391.7,459.6,390.7,459.6z"/>
	<path id="XMLID_159_" class="st6" d="M562.8,225.2h-39c-0.9,0-1.6-0.7-1.6-1.6l0,0c0-0.9,0.7-1.6,1.6-1.6h39c0.9,0,1.6,0.7,1.6,1.6
		l0,0C564.4,224.5,563.7,225.2,562.8,225.2z"/>
	<path id="XMLID_160_" class="st6" d="M533.2,215.8h-28.8c-0.9,0-1.6-0.7-1.6-1.6l0,0c0-0.9,0.7-1.6,1.6-1.6h28.8
		c0.9,0,1.6,0.7,1.6,1.6l0,0C534.7,215.1,534,215.8,533.2,215.8z"/>
</g>
<g id="Layer_9">
	<path id="XMLID_62_" class="st7" d="M156.2,0.9H0v556.3h149.3C90.2,481.6,55,386.6,55,283.3C55,176,93,77.7,156.2,0.9z"/>
	<g id="XMLID_99_">
		<path id="XMLID_139_" class="st8" d="M375,244.2c-7.9,0-14.3,6.4-14.3,14.3c0,7.9,6.4,14.3,14.3,14.3c7.9,0,14.3-6.4,14.3-14.3
			C389.3,250.6,382.9,244.2,375,244.2z M375,271.5c-7.2,0-13-5.8-13-13c0-7.2,5.8-13,13-13s13,5.8,13,13
			C388,265.7,382.2,271.5,375,271.5z"/>
		<path id="XMLID_102_" class="st8" d="M375,247c-6.4,0-11.6,5.2-11.6,11.6c0,6.4,5.2,11.6,11.6,11.6s11.6-5.2,11.6-11.6
			C386.6,252.1,381.4,247,375,247z M375,267.9c-5.2,0-9.4-4.2-9.4-9.4c0-5.2,4.2-9.4,9.4-9.4c5.2,0,9.4,4.2,9.4,9.4
			C384.4,263.7,380.2,267.9,375,267.9z"/>
		
			<ellipse id="XMLID_100_" transform="matrix(0.9732 -0.2298 0.2298 0.9732 -49.3679 93.0752)" class="st8" cx="375" cy="258.5" rx="6.3" ry="6.3"/>
	</g>
	<path id="XMLID_96_" class="st9" d="M673.2,291c-6.7,0-12,5.4-12,12s5.4,12,12,12c6.7,0,12-5.4,12-12S679.9,291,673.2,291z
		 M673.2,314c-6.1,0-11-4.9-11-11s4.9-11,11-11c6.1,0,11,4.9,11,11S679.3,314,673.2,314z"/>
	<path id="XMLID_199_" class="st10" d="M52,149.5c-4.4,0-7.9,3.5-7.9,7.9c0,4.4,3.5,7.9,7.9,7.9c4.4,0,7.9-3.5,7.9-7.9
		C59.9,153,56.4,149.5,52,149.5z M52,164.6c-4,0-7.2-3.2-7.2-7.2s3.2-7.2,7.2-7.2c4,0,7.2,3.2,7.2,7.2S56,164.6,52,164.6z"/>
	<path id="XMLID_93_" class="st9" d="M635,259.6c-3.9,0-7.2,3.2-7.2,7.2s3.2,7.2,7.2,7.2s7.2-3.2,7.2-7.2S639,259.6,635,259.6z
		 M635,273.3c-3.6,0-6.5-2.9-6.5-6.5c0-3.6,2.9-6.5,6.5-6.5s6.5,2.9,6.5,6.5C641.5,270.4,638.6,273.3,635,273.3z"/>
	<path id="XMLID_90_" class="st9" d="M636.1,251.1c-7.7,0-13.9,6.2-13.9,13.9s6.2,13.9,13.9,13.9c7.7,0,13.9-6.2,13.9-13.9
		S643.8,251.1,636.1,251.1z M636.1,276.3c-6.2,0-11.3-5-11.3-11.3s5-11.3,11.3-11.3c6.2,0,11.3,5,11.3,11.3S642.3,276.3,636.1,276.3
		z"/>
	<circle id="XMLID_89_" class="st8" cx="396" cy="154.6" r="3.9"/>
	<circle id="XMLID_198_" class="st11" cx="72.8" cy="116.1" r="3.2"/>
	<g id="XMLID_81_">
		<path id="XMLID_86_" class="st8" d="M347.5,225.6c-3.8,0-7,3.1-7,7c0,3.8,3.1,7,7,7s7-3.1,7-7
			C354.4,228.7,351.3,225.6,347.5,225.6z M347.5,238.9c-3.5,0-6.3-2.8-6.3-6.3s2.8-6.3,6.3-6.3s6.3,2.8,6.3,6.3
			S351,238.9,347.5,238.9z"/>
		<path id="XMLID_83_" class="st8" d="M347.5,226.9c-3.1,0-5.6,2.5-5.6,5.6s2.5,5.6,5.6,5.6s5.6-2.5,5.6-5.6
			S350.6,226.9,347.5,226.9z M347.5,237.2c-2.5,0-4.6-2-4.6-4.6s2-4.6,4.6-4.6s4.6,2,4.6,4.6S350,237.2,347.5,237.2z"/>
		<circle id="XMLID_82_" class="st8" cx="347.5" cy="232.6" r="3.1"/>
	</g>
	<path id="XMLID_80_" class="st12" d="M629.4,143H625c-0.8,0-1.4-0.6-1.4-1.4v-4.4c0-0.8-0.6-1.4-1.4-1.4l0,0
		c-0.8,0-1.4,0.6-1.4,1.4v4.4c0,0.8-0.6,1.4-1.4,1.4H615c-0.8,0-1.4,0.6-1.4,1.4l0,0c0,0.8,0.6,1.4,1.4,1.4h4.4
		c0.8,0,1.4,0.6,1.4,1.4v4.4c0,0.8,0.6,1.4,1.4,1.4l0,0c0.8,0,1.4-0.6,1.4-1.4v-4.4c0-0.8,0.6-1.4,1.4-1.4h4.4
		c0.8,0,1.4-0.6,1.4-1.4l0,0C630.8,143.7,630.2,143,629.4,143z"/>
	<path id="XMLID_79_" class="st13" d="M599.6,185.8h-2.2c-0.4,0-0.7-0.3-0.7-0.7v-2.2c0-0.4-0.3-0.7-0.7-0.7l0,0
		c-0.4,0-0.7,0.3-0.7,0.7v2.2c0,0.4-0.3,0.7-0.7,0.7h-2.2c-0.4,0-0.7,0.3-0.7,0.7l0,0c0,0.4,0.3,0.7,0.7,0.7h2.2
		c0.4,0,0.7,0.3,0.7,0.7v2.2c0,0.4,0.3,0.7,0.7,0.7l0,0c0.4,0,0.7-0.3,0.7-0.7v-2.2c0-0.4,0.3-0.7,0.7-0.7h2.2
		c0.4,0,0.7-0.3,0.7-0.7l0,0C600.3,186.1,600,185.8,599.6,185.8z"/>
	<path id="XMLID_107_" class="st9" d="M768.8,79.2c5.7-3.8,12.3-6.4,19.5-7.4c2.7-0.4,5.3-0.5,7.9-0.4c0,0,0.1,0,0.1,0
		c10-1.4,19.6,0.6,27.9,4.9c-8.1-5.8-17.9-9.3-28.3-9.5c-0.1,0-0.2,0-0.3,0C785.4,68.2,776.1,72.7,768.8,79.2z"/>
	<path id="XMLID_73_" class="st9" d="M783.8,50.3c9.6-0.5,19.4,1,28.9,5c3.5,1.5,6.8,3.2,9.9,5.2c0.1,0,0.1,0,0.2,0.1
		c13,5.5,23.3,14.7,30.2,25.9c-5.6-12.8-15-24-27.3-31.8c-0.1-0.1-0.2-0.1-0.4-0.2C811.6,48.8,797.3,47.6,783.8,50.3z"/>
	<path id="XMLID_213_" class="st14" d="M1008.2,277.8c-17.2,0-33.8,3.4-49.5,10c-15.1,6.4-28.7,15.6-40.4,27.2s-20.8,25.3-27.2,40.4
		c-6.6,15.7-10,32.3-10,49.5h3.2c0-68.4,55.5-123.9,123.9-123.9c2.7,0,5.3,0.1,7.9,0.3V278C1013.5,277.9,1010.9,277.8,1008.2,277.8z
		"/>
	<g id="XMLID_219_">
		<path id="XMLID_215_" class="st15" d="M882.5,475.9L882.5,475.9c-11.8,0-21.4-9.6-21.4-21.4v-23.1c0-11.8,9.6-21.4,21.4-21.4h0
			c11.8,0,21.4,9.6,21.4,21.4v23.1C903.9,466.3,894.3,475.9,882.5,475.9z"/>
		<path id="XMLID_3_" class="st16" d="M882.5,446.3L882.5,446.3c-1.2,0-2.1-1-2.1-2.1v-21.2c0-1.2,1-2.1,2.1-2.1l0,0
			c1.2,0,2.1,1,2.1,2.1v21.2C884.7,445.3,883.7,446.3,882.5,446.3z"/>
	</g>
	<path id="XMLID_76_" class="st17" d="M1016.1,238.4v88c1.4-14.5,2.1-29.2,2.1-44S1017.5,252.9,1016.1,238.4z"/>
	<path id="XMLID_74_" class="st18" d="M983.1,456.7c-15.3,36.1-35,69.7-58.9,100.4h7.1c41.2-52.7,70.8-114.9,84.9-182.8v-48
		C1011.8,371.3,1000.7,415,983.1,456.7z"/>
	<path id="XMLID_23_" class="st19" d="M16.3,282.4C16.3,175.6,54,77.5,116.8,0.9h-3.9C86.5,33.4,64.9,69.3,48.5,108.1
		c-23.4,55.2-35.2,113.8-35.2,174.3s11.8,119.1,35.2,174.3c15.3,36.1,35,69.7,58.9,100.4h3.8C51.8,481.5,16.3,386.1,16.3,282.4z"/>
	<path id="XMLID_1_" class="st20" d="M94.2,282.4c0-106.8,37.7-204.9,100.4-281.5h-3.9c-26.4,32.5-47.9,68.4-64.3,107.2
		c-23.4,55.2-35.2,113.8-35.2,174.3s11.8,119.1,35.2,174.3c15.3,36.1,35,69.7,58.9,100.4h3.8C129.7,481.5,94.2,386.1,94.2,282.4z"/>
	<path id="XMLID_57_" class="st20" d="M88.9,282.4c0-106.8,37.7-204.9,100.4-281.5h-3.9c-26.4,32.5-47.9,68.4-64.3,107.2
		c-23.4,55.2-35.2,113.8-35.2,174.3s11.8,119.1,35.2,174.3c15.3,36.1,35,69.7,58.9,100.4h3.8C124.4,481.5,88.9,386.1,88.9,282.4z"/>
	<path id="XMLID_56_" class="st20" d="M107.9,282.4c0-106.8,37.7-204.9,100.4-281.5h-3.9c-26.4,32.5-47.9,68.4-64.3,107.2
		c-23.4,55.2-35.2,113.8-35.2,174.3s11.8,119.1,35.2,174.3c15.3,36.1,35,69.7,58.9,100.4h3.8C143.4,481.5,107.9,386.1,107.9,282.4z"
		/>
</g>
<g id="Layer_2">
	<rect id="XMLID_48_" x="504.2" y="374.7" class="st21" width="3.7" height="19.5"/>
	<path id="XMLID_49_" class="st22" d="M553.6,394.6h-95.2c-0.9,0-1.7-0.8-1.7-1.7v-0.2c0-0.9,0.8-1.7,1.7-1.7h95.2
		c0.9,0,1.7,0.8,1.7,1.7v0.2C555.3,393.9,554.5,394.6,553.6,394.6z"/>
	<g id="XMLID_42_">
		<circle id="XMLID_46_" class="st23" cx="506" cy="392.9" r="8.3"/>
		<path id="XMLID_44_" class="st24" d="M506,384.6c4.6,0,8.3,3.7,8.3,8.3s-3.7,8.3-8.3,8.3s-8.3-3.7-8.3-8.3S501.4,384.6,506,384.6
			 M506,381.4c-6.3,0-11.5,5.1-11.5,11.5c0,6.3,5.1,11.5,11.5,11.5s11.5-5.1,11.5-11.5C517.4,386.5,512.3,381.4,506,381.4L506,381.4
			z"/>
	</g>
</g>
<g id="Layer_4">
	<path id="XMLID_69_" class="st25" d="M564,276.4H444.4c-4,0-7.2-3.2-7.2-7.2v-24.2c0-4,3.2-7.2,7.2-7.2H564c4,0,7.2,3.2,7.2,7.2
		v24.2C571.1,273.2,567.9,276.4,564,276.4z"/>
	<path id="XMLID_68_" class="st26" d="M564,326.4H444.4c-4,0-7.2-3.2-7.2-7.2V295c0-4,3.2-7.2,7.2-7.2H564c4,0,7.2,3.2,7.2,7.2v24.2
		C571.1,323.2,567.9,326.4,564,326.4z"/>
	<path id="XMLID_64_" class="st26" d="M564,376.3H444.4c-4,0-7.2-3.2-7.2-7.2V345c0-4,3.2-7.2,7.2-7.2H564c4,0,7.2,3.2,7.2,7.2v24.2
		C571.1,373.1,567.9,376.3,564,376.3z"/>
</g>
<g id="Layer_5">
	<path id="XMLID_32_" class="st27" d="M437.3,261.9v6.9c0,4.2,3.4,7.5,7.5,7.5h118.8c4.2,0,7.5-3.4,7.5-7.5v-6.9H437.3z"/>
	<path id="XMLID_40_" class="st28" d="M437.3,311.9v6.9c0,4.2,3.4,7.5,7.5,7.5h118.8c4.2,0,7.5-3.4,7.5-7.5v-6.9H437.3z"/>
	<path id="XMLID_39_" class="st28" d="M437.3,361.9v6.9c0,4.2,3.4,7.5,7.5,7.5h118.8c4.2,0,7.5-3.4,7.5-7.5v-6.9H437.3z"/>
</g>
<g id="Layer_3">
	<circle id="XMLID_60_" class="st29" cx="448.9" cy="249.3" r="3.8"/>
	<circle id="XMLID_59_" class="st30" cx="459.2" cy="249.3" r="3.8"/>
	<circle id="XMLID_21_" class="st31" cx="469.3" cy="249.3" r="3.8"/>
	<path id="XMLID_20_" class="st32" d="M561.1,250.9h-20c-0.8,0-1.5-0.6-1.5-1.5v-0.2c0-0.8,0.6-1.5,1.5-1.5h20
		c0.8,0,1.5,0.6,1.5,1.5v0.2C562.6,250.2,561.9,250.9,561.1,250.9z"/>
	<circle id="XMLID_19_" class="st33" cx="448.9" cy="299.3" r="3.8"/>
	<circle id="XMLID_18_" class="st34" cx="459.2" cy="299.3" r="3.8"/>
	<circle id="XMLID_17_" class="st35" cx="469.3" cy="299.3" r="3.8"/>
	<circle id="XMLID_15_" class="st33" cx="448.9" cy="349.3" r="3.8"/>
	<circle id="XMLID_14_" class="st34" cx="459.2" cy="349.3" r="3.8"/>
	<circle id="XMLID_13_" class="st35" cx="469.3" cy="349.3" r="3.8"/>
	<path id="XMLID_12_" class="st36" d="M561.1,350.8h-20c-0.8,0-1.5-0.6-1.5-1.5v-0.2c0-0.8,0.6-1.5,1.5-1.5h20
		c0.8,0,1.5,0.6,1.5,1.5v0.2C562.6,350.2,561.9,350.8,561.1,350.8z"/>
</g>
<g id="Layer_6">
	<path id="XMLID_27_" class="st6" d="M562,236.3H446.4c-5.9,0-10.7,4.8-10.7,10.7v20.3c0,5.9,4.8,10.7,10.7,10.7h1.7
		c0.9,0,1.6-0.7,1.6-1.6v0c0-0.9-0.7-1.6-1.6-1.6h-1.7c-4.2,0-7.5-3.4-7.5-7.5V247c0-4.2,3.4-7.5,7.5-7.5H562c4.2,0,7.5,3.4,7.5,7.5
		v20.3c0,4.2-3.4,7.5-7.5,7.5h-92.2c-0.9,0-1.6,0.7-1.6,1.6v0c0,0.9,0.7,1.6,1.6,1.6H562c5.9,0,10.7-4.8,10.7-10.7V247
		C572.7,241.1,567.9,236.3,562,236.3z"/>
	<path id="XMLID_35_" class="st37" d="M446.4,286.3H562c5.9,0,10.7,4.8,10.7,10.7v20.3c0,5.9-4.8,10.7-10.7,10.7h-1.7
		c-0.9,0-1.6-0.7-1.6-1.6v0c0-0.9,0.7-1.6,1.6-1.6h1.7c4.2,0,7.5-3.4,7.5-7.5V297c0-4.2-3.4-7.5-7.5-7.5H446.4
		c-4.2,0-7.5,3.4-7.5,7.5v20.3c0,4.2,3.4,7.5,7.5,7.5h92.2c0.9,0,1.6,0.7,1.6,1.6v0c0,0.9-0.7,1.6-1.6,1.6h-92.2
		c-5.9,0-10.7-4.8-10.7-10.7V297C435.7,291.1,440.5,286.3,446.4,286.3z"/>
	<path id="XMLID_5_" class="st38" d="M446.4,336.3H562c5.9,0,10.7,4.8,10.7,10.7v20.3c0,5.9-4.8,10.7-10.7,10.7h-60.6
		c-0.9,0-1.6-0.7-1.6-1.6v0c0-0.9,0.7-1.6,1.6-1.6H562c4.2,0,7.5-3.4,7.5-7.5V347c0-4.2-3.4-7.5-7.5-7.5H446.4
		c-4.2,0-7.5,3.4-7.5,7.5v20.3c0,4.2,3.4,7.5,7.5,7.5h33.3c0.9,0,1.6,0.7,1.6,1.6v0c0,0.9-0.7,1.6-1.6,1.6h-33.3
		c-5.9,0-10.7-4.8-10.7-10.7V347C435.7,341.1,440.5,336.3,446.4,336.3z"/>
</g>
</svg>
