<?xml version="1.0" encoding="utf-8"?>
<!-- Generator: Adobe Illustrator 24.0.2, SVG Export Plug-In . SVG Version: 6.00 Build 0)  -->
<svg version="1.1" xmlns="http://www.w3.org/2000/svg" xmlns:xlink="http://www.w3.org/1999/xlink" x="0px" y="0px"
	 viewBox="0 0 970.84 1634.37" style="enable-background:new 0 0 970.84 1634.37;" xml:space="preserve">
<style type="text/css">
	.st0{fill:#EFEFEF;}
	.st1{fill:#53606B;}
	.st2{fill:#7C90A1;}
	.st3{fill:#F5F4E6;}
	.st4{fill:#E6DBAF;}
	.st5{opacity:0.8;fill:#FFFFFF;}
	.st6{fill:#428296;}
	.st7{fill:#BEE0EB;}
	.st8{opacity:0.4;}
	.st9{fill:#FFFFFF;}
	.st10{fill:#DE4747;}
	.st11{fill:#F55B5B;}
	.st12{fill:#B33939;}
	.st13{opacity:0.6;fill:#E6DBAF;}
	.st14{fill:#1E6D85;}
	.st15{fill:#448BA1;}
	.st16{fill:#E6E5D8;}
	.st17{opacity:0.6;fill:#BDB490;}
	.st18{fill:none;stroke:#FFDE5A;stroke-miterlimit:10;}
	.st19{fill:#FFDE5A;}
	.st20{fill:#8AA0B3;}
	.st21{fill:url(#SVGID_1_);}
	.st22{stroke:#000000;stroke-width:0.9773;}
	.st23{fill:url(#SVGID_2_);}
	.st24{fill:url(#SVGID_3_);}
	.st25{fill:url(#SVGID_4_);}
	.st26{fill:url(#SVGID_5_);}
	.st27{fill:url(#SVGID_6_);}
	.st28{fill:url(#SVGID_7_);}
	.st29{fill:url(#SVGID_8_);}
	.st30{stroke:#000000;stroke-width:1.25;}
	.st31{fill:#FFA300;}
	.st32{fill:url(#SVGID_9_);}
	.st33{fill:#161616;}
</style>
<g id="Background">
</g>
<g id="Layer_4">
	<g>
		<path class="st0" d="M177.92,360.87c0,49.75,40.33,90.08,90.08,90.08h387.06c49.75,0,90.08-40.33,90.08-90.08l0,0
			c0-49.75-40.33-90.08-90.08-90.08H267.99C218.25,270.79,177.92,311.12,177.92,360.87L177.92,360.87z"/>
		
			<ellipse transform="matrix(0.7071 -0.7071 0.7071 0.7071 -30.7014 564.0842)" class="st0" cx="665.56" cy="319.1" rx="131.84" ry="131.84"/>
		
			<ellipse transform="matrix(0.3859 -0.9225 0.9225 0.3859 -19.4059 447.4117)" class="st0" cx="326.37" cy="238.28" rx="85.09" ry="85.09"/>
		
			<ellipse transform="matrix(0.7071 -0.7071 0.7071 0.7071 -5.3652 428.2218)" class="st0" cx="514.23" cy="220.59" rx="169.41" ry="169.41"/>
	</g>
</g>
<g id="Objects">
	<g>
		<rect x="30.68" y="1569.4" class="st1" width="903.59" height="27.18"/>
		<rect x="30.68" y="1560.26" class="st2" width="903.59" height="9.14"/>
	</g>
	<rect x="187.49" y="434.4" class="st3" width="589.98" height="1125.86"/>
	<rect x="187.3" y="1511.24" class="st4" width="589.98" height="49.01"/>
	<rect x="187.49" y="473.63" class="st4" width="589.98" height="17.22"/>
	<rect x="187.49" y="1490.67" class="st5" width="589.98" height="20.58"/>
	<g>
		<g>
			<rect x="405.53" y="1421.43" class="st6" width="153.9" height="138.83"/>
			<rect x="418.24" y="1434.61" class="st7" width="128.47" height="125.64"/>
			<rect x="477.3" y="1426.14" class="st6" width="10.36" height="134.12"/>
		</g>
		<g class="st8">
			<g>
				<polygon class="st9" points="477.3,1439.71 418.24,1516.38 418.24,1511.36 477.3,1434.69 				"/>
				<polygon class="st9" points="477.3,1483.16 418.24,1560.26 418.24,1551.2 477.3,1474.53 				"/>
				<polygon class="st9" points="477.3,1467.72 418.24,1544.39 418.24,1527.39 477.3,1450.72 				"/>
			</g>
			<g>
				<polygon class="st9" points="546.71,1439.71 487.66,1516.38 487.66,1511.36 546.71,1434.69 				"/>
				<polygon class="st9" points="546.71,1483.16 487.66,1560.26 487.66,1551.2 546.71,1474.53 				"/>
				<polygon class="st9" points="546.71,1467.72 487.66,1544.39 487.66,1527.39 546.71,1450.72 				"/>
			</g>
		</g>
		<g>
			<path class="st6" d="M468.91,1528.21c0,1.41-1.14,2.55-2.55,2.55l0,0c-1.41,0-2.55-1.14-2.55-2.55v-22.35
				c0-1.41,1.14-2.55,2.55-2.55l0,0c1.41,0,2.55,1.14,2.55,2.55V1528.21z"/>
			<path class="st6" d="M501.16,1528.21c0,1.41-1.14,2.55-2.55,2.55l0,0c-1.41,0-2.55-1.14-2.55-2.55v-22.35
				c0-1.41,1.14-2.55,2.55-2.55l0,0c1.41,0,2.55,1.14,2.55,2.55V1528.21z"/>
		</g>
	</g>
	<g>
		<g>
			<path class="st10" d="M602.56,1435.97c-11.29-52.67-60.76-92.34-120.08-92.34c-59.32,0-108.79,39.66-120.08,92.34H602.56z"/>
			<path class="st11" d="M581.23,1435.97c-9.29-52.67-49.97-92.34-98.75-92.34s-89.47,39.66-98.75,92.34H581.23z"/>
			<path class="st10" d="M551.08,1435.97c-6.45-52.67-34.71-92.34-68.6-92.34c-33.89,0-62.15,39.66-68.6,92.34H551.08z"/>
			<path class="st11" d="M509.16,1435.97c-2.51-52.67-13.5-92.34-26.69-92.34c-13.18,0-24.18,39.66-26.69,92.34H509.16z"/>
		</g>
		<g>
			<path class="st12" d="M377.39,1450.8c8.29,0,15.01-6.64,15.01-14.83h-30.02C362.38,1444.16,369.1,1450.8,377.39,1450.8z"/>
			<path class="st12" d="M407.42,1450.8c8.29,0,15.01-6.64,15.01-14.83H392.4C392.4,1444.16,399.12,1450.8,407.42,1450.8z"/>
			<path class="st12" d="M437.44,1450.8c8.29,0,15.01-6.64,15.01-14.83h-30.02C422.43,1444.16,429.15,1450.8,437.44,1450.8z"/>
			<path class="st12" d="M467.46,1450.8c8.29,0,15.01-6.64,15.01-14.83h-30.02C452.45,1444.16,459.17,1450.8,467.46,1450.8z"/>
			<path class="st12" d="M497.49,1450.8c8.29,0,15.01-6.64,15.01-14.83h-30.02C482.48,1444.16,489.2,1450.8,497.49,1450.8z"/>
			<path class="st12" d="M527.51,1450.8c8.29,0,15.01-6.64,15.01-14.83H512.5C512.5,1444.16,519.22,1450.8,527.51,1450.8z"/>
			<path class="st12" d="M557.54,1450.8c8.29,0,15.01-6.64,15.01-14.83h-30.02C542.53,1444.16,549.25,1450.8,557.54,1450.8z"/>
			<path class="st12" d="M587.56,1450.8c8.29,0,15.01-6.64,15.01-14.83h-30.02C572.55,1444.16,579.27,1450.8,587.56,1450.8z"/>
		</g>
	</g>
	<g>
		<g>
			<rect x="187.49" y="1321.03" class="st13" width="589.98" height="5.33"/>
			<rect x="187.49" y="1326.37" class="st5" width="589.98" height="5.33"/>
		</g>
		<g>
			<rect x="187.49" y="1155.21" class="st13" width="589.98" height="5.33"/>
			<rect x="187.49" y="1160.54" class="st5" width="589.98" height="5.33"/>
		</g>
		<g>
			<rect x="187.49" y="989.38" class="st13" width="589.98" height="5.33"/>
			<rect x="187.49" y="994.71" class="st5" width="589.98" height="5.33"/>
		</g>
		<g>
			<rect x="187.49" y="823.55" class="st13" width="589.98" height="5.33"/>
			<rect x="187.49" y="828.88" class="st5" width="589.98" height="5.33"/>
		</g>
		<g>
			<rect x="187.49" y="657.72" class="st13" width="589.98" height="5.33"/>
			<rect x="187.49" y="663.05" class="st5" width="589.98" height="5.33"/>
		</g>
		<g>
			<g>
				<g>
					<rect x="223.99" y="1190.46" class="st6" width="65.22" height="104.08"/>
					<rect x="229.56" y="1195.46" class="st7" width="54.08" height="94.07"/>
					<g class="st8">
						<polygon class="st9" points="283.64,1221.97 229.56,1277.83 229.56,1266 283.64,1210.14 						"/>
						<polygon class="st9" points="283.64,1233.92 229.56,1289.78 229.56,1286.33 283.64,1230.46 						"/>
						<polygon class="st9" points="283.64,1204.27 229.56,1260.13 229.56,1251.26 283.64,1195.4 						"/>
					</g>
					<rect x="216.71" y="1289.53" class="st14" width="79.79" height="8.12"/>
				</g>
				<g>
					<rect x="336.93" y="1190.46" class="st6" width="65.22" height="104.08"/>
					<rect x="342.5" y="1195.46" class="st7" width="54.08" height="94.07"/>
					<g class="st8">
						<polygon class="st9" points="396.58,1221.97 342.5,1277.83 342.5,1266 396.58,1210.14 						"/>
						<polygon class="st9" points="396.58,1233.92 342.5,1289.78 342.5,1286.33 396.58,1230.46 						"/>
						<polygon class="st9" points="396.58,1204.27 342.5,1260.13 342.5,1251.26 396.58,1195.4 						"/>
					</g>
					<rect x="329.64" y="1289.53" class="st14" width="79.79" height="8.12"/>
				</g>
				<g>
					<rect x="449.87" y="1190.46" class="st6" width="65.22" height="104.08"/>
					<rect x="455.44" y="1195.46" class="st7" width="54.08" height="94.07"/>
					<g class="st8">
						<polygon class="st9" points="509.52,1221.97 455.44,1277.83 455.44,1266 509.52,1210.14 						"/>
						<polygon class="st9" points="509.52,1233.92 455.44,1289.78 455.44,1286.33 509.52,1230.46 						"/>
						<polygon class="st9" points="509.52,1204.27 455.44,1260.13 455.44,1251.26 509.52,1195.4 						"/>
					</g>
					<rect x="442.58" y="1289.53" class="st14" width="79.79" height="8.12"/>
				</g>
				<g>
					<rect x="562.8" y="1190.46" class="st6" width="65.22" height="104.08"/>
					<rect x="568.37" y="1195.46" class="st7" width="54.08" height="94.07"/>
					<g class="st8">
						<polygon class="st9" points="622.46,1221.97 568.37,1277.83 568.37,1266 622.46,1210.14 						"/>
						<polygon class="st9" points="622.46,1233.92 568.37,1289.78 568.37,1286.33 622.46,1230.46 						"/>
						<polygon class="st9" points="622.46,1204.27 568.37,1260.13 568.37,1251.26 622.46,1195.4 						"/>
					</g>
					<rect x="555.52" y="1289.53" class="st14" width="79.79" height="8.12"/>
				</g>
				<g>
					<rect x="675.74" y="1190.46" class="st6" width="65.22" height="104.08"/>
					<rect x="681.31" y="1195.46" class="st7" width="54.08" height="94.07"/>
					<g class="st8">
						<polygon class="st9" points="735.39,1221.97 681.31,1277.83 681.31,1266 735.39,1210.14 						"/>
						<polygon class="st9" points="735.39,1233.92 681.31,1289.78 681.31,1286.33 735.39,1230.46 						"/>
						<polygon class="st9" points="735.39,1204.27 681.31,1260.13 681.31,1251.26 735.39,1195.4 						"/>
					</g>
					<rect x="668.46" y="1289.53" class="st14" width="79.79" height="8.12"/>
				</g>
			</g>
			<g>
				<g>
					<rect x="223.99" y="1024.63" class="st6" width="65.22" height="104.08"/>
					<rect x="229.56" y="1029.64" class="st7" width="54.08" height="94.07"/>
					<g class="st8">
						<polygon class="st9" points="283.64,1056.14 229.56,1112 229.56,1100.18 283.64,1044.32 						"/>
						<polygon class="st9" points="283.64,1068.1 229.56,1123.96 229.56,1120.5 283.64,1064.64 						"/>
						<polygon class="st9" points="283.64,1038.44 229.56,1094.3 229.56,1085.43 283.64,1029.57 						"/>
					</g>
					<rect x="216.71" y="1123.7" class="st14" width="79.79" height="8.12"/>
				</g>
				<g>
					<rect x="336.93" y="1024.63" class="st6" width="65.22" height="104.08"/>
					<rect x="342.5" y="1029.64" class="st7" width="54.08" height="94.07"/>
					<g class="st8">
						<polygon class="st9" points="396.58,1056.14 342.5,1112 342.5,1100.18 396.58,1044.32 						"/>
						<polygon class="st9" points="396.58,1068.1 342.5,1123.96 342.5,1120.5 396.58,1064.64 						"/>
						<polygon class="st9" points="396.58,1038.44 342.5,1094.3 342.5,1085.43 396.58,1029.57 						"/>
					</g>
					<rect x="329.64" y="1123.7" class="st14" width="79.79" height="8.12"/>
				</g>
				<g>
					<rect x="449.87" y="1024.63" class="st6" width="65.22" height="104.08"/>
					<rect x="455.44" y="1029.64" class="st7" width="54.08" height="94.07"/>
					<g class="st8">
						<polygon class="st9" points="509.52,1056.14 455.44,1112 455.44,1100.18 509.52,1044.32 						"/>
						<polygon class="st9" points="509.52,1068.1 455.44,1123.96 455.44,1120.5 509.52,1064.64 						"/>
						<polygon class="st9" points="509.52,1038.44 455.44,1094.3 455.44,1085.43 509.52,1029.57 						"/>
					</g>
					<rect x="442.58" y="1123.7" class="st14" width="79.79" height="8.12"/>
				</g>
				<g>
					<rect x="562.8" y="1024.63" class="st6" width="65.22" height="104.08"/>
					<rect x="568.37" y="1029.64" class="st7" width="54.08" height="94.07"/>
					<g class="st8">
						<polygon class="st9" points="622.46,1056.14 568.37,1112 568.37,1100.18 622.46,1044.32 						"/>
						<polygon class="st9" points="622.46,1068.1 568.37,1123.96 568.37,1120.5 622.46,1064.64 						"/>
						<polygon class="st9" points="622.46,1038.44 568.37,1094.3 568.37,1085.43 622.46,1029.57 						"/>
					</g>
					<rect x="555.52" y="1123.7" class="st14" width="79.79" height="8.12"/>
				</g>
				<g>
					<rect x="675.74" y="1024.63" class="st6" width="65.22" height="104.08"/>
					<rect x="681.31" y="1029.64" class="st7" width="54.08" height="94.07"/>
					<g class="st8">
						<polygon class="st9" points="735.39,1056.14 681.31,1112 681.31,1100.18 735.39,1044.32 						"/>
						<polygon class="st9" points="735.39,1068.1 681.31,1123.96 681.31,1120.5 735.39,1064.64 						"/>
						<polygon class="st9" points="735.39,1038.44 681.31,1094.3 681.31,1085.43 735.39,1029.57 						"/>
					</g>
					<rect x="668.46" y="1123.7" class="st14" width="79.79" height="8.12"/>
				</g>
			</g>
			<g>
				<g>
					<rect x="223.99" y="858.8" class="st6" width="65.22" height="104.08"/>
					<rect x="229.56" y="863.81" class="st7" width="54.08" height="94.07"/>
					<g class="st8">
						<polygon class="st9" points="283.64,890.32 229.56,946.18 229.56,934.35 283.64,878.49 						"/>
						<polygon class="st9" points="283.64,902.27 229.56,958.13 229.56,954.67 283.64,898.81 						"/>
						<polygon class="st9" points="283.64,872.61 229.56,928.47 229.56,919.61 283.64,863.75 						"/>
					</g>
					<rect x="216.71" y="957.88" class="st14" width="79.79" height="8.12"/>
				</g>
				<g>
					<rect x="336.93" y="858.8" class="st6" width="65.22" height="104.08"/>
					<rect x="342.5" y="863.81" class="st7" width="54.08" height="94.07"/>
					<g class="st8">
						<polygon class="st9" points="396.58,890.32 342.5,946.18 342.5,934.35 396.58,878.49 						"/>
						<polygon class="st9" points="396.58,902.27 342.5,958.13 342.5,954.67 396.58,898.81 						"/>
						<polygon class="st9" points="396.58,872.61 342.5,928.47 342.5,919.61 396.58,863.75 						"/>
					</g>
					<rect x="329.64" y="957.88" class="st14" width="79.79" height="8.12"/>
				</g>
				<g>
					<rect x="449.87" y="858.8" class="st6" width="65.22" height="104.08"/>
					<rect x="455.44" y="863.81" class="st7" width="54.08" height="94.07"/>
					<g class="st8">
						<polygon class="st9" points="509.52,890.32 455.44,946.18 455.44,934.35 509.52,878.49 						"/>
						<polygon class="st9" points="509.52,902.27 455.44,958.13 455.44,954.67 509.52,898.81 						"/>
						<polygon class="st9" points="509.52,872.61 455.44,928.47 455.44,919.61 509.52,863.75 						"/>
					</g>
					<rect x="442.58" y="957.88" class="st14" width="79.79" height="8.12"/>
				</g>
				<g>
					<rect x="562.8" y="858.8" class="st6" width="65.22" height="104.08"/>
					<rect x="568.37" y="863.81" class="st7" width="54.08" height="94.07"/>
					<g class="st8">
						<polygon class="st9" points="622.46,890.32 568.37,946.18 568.37,934.35 622.46,878.49 						"/>
						<polygon class="st9" points="622.46,902.27 568.37,958.13 568.37,954.67 622.46,898.81 						"/>
						<polygon class="st9" points="622.46,872.61 568.37,928.47 568.37,919.61 622.46,863.75 						"/>
					</g>
					<rect x="555.52" y="957.88" class="st14" width="79.79" height="8.12"/>
				</g>
				<g>
					<rect x="675.74" y="858.8" class="st6" width="65.22" height="104.08"/>
					<rect x="681.31" y="863.81" class="st7" width="54.08" height="94.07"/>
					<g class="st8">
						<polygon class="st9" points="735.39,890.32 681.31,946.18 681.31,934.35 735.39,878.49 						"/>
						<polygon class="st9" points="735.39,902.27 681.31,958.13 681.31,954.67 735.39,898.81 						"/>
						<polygon class="st9" points="735.39,872.61 681.31,928.47 681.31,919.61 735.39,863.75 						"/>
					</g>
					<rect x="668.46" y="957.88" class="st14" width="79.79" height="8.12"/>
				</g>
			</g>
			<g>
				<g>
					<rect x="223.99" y="692.97" class="st6" width="65.22" height="104.08"/>
					<rect x="229.56" y="697.98" class="st7" width="54.08" height="94.07"/>
					<g class="st8">
						<polygon class="st9" points="283.64,724.49 229.56,780.35 229.56,768.52 283.64,712.66 						"/>
						<polygon class="st9" points="283.64,736.44 229.56,792.3 229.56,788.84 283.64,732.98 						"/>
						<polygon class="st9" points="283.64,706.79 229.56,762.65 229.56,753.78 283.64,697.92 						"/>
					</g>
					<rect x="216.71" y="792.05" class="st14" width="79.79" height="8.12"/>
				</g>
				<g>
					<rect x="336.93" y="692.97" class="st6" width="65.22" height="104.08"/>
					<rect x="342.5" y="697.98" class="st7" width="54.08" height="94.07"/>
					<g class="st8">
						<polygon class="st9" points="396.58,724.49 342.5,780.35 342.5,768.52 396.58,712.66 						"/>
						<polygon class="st9" points="396.58,736.44 342.5,792.3 342.5,788.84 396.58,732.98 						"/>
						<polygon class="st9" points="396.58,706.79 342.5,762.65 342.5,753.78 396.58,697.92 						"/>
					</g>
					<rect x="329.64" y="792.05" class="st14" width="79.79" height="8.12"/>
				</g>
				<g>
					<rect x="449.87" y="692.97" class="st6" width="65.22" height="104.08"/>
					<rect x="455.44" y="697.98" class="st7" width="54.08" height="94.07"/>
					<g class="st8">
						<polygon class="st9" points="509.52,724.49 455.44,780.35 455.44,768.52 509.52,712.66 						"/>
						<polygon class="st9" points="509.52,736.44 455.44,792.3 455.44,788.84 509.52,732.98 						"/>
						<polygon class="st9" points="509.52,706.79 455.44,762.65 455.44,753.78 509.52,697.92 						"/>
					</g>
					<rect x="442.58" y="792.05" class="st14" width="79.79" height="8.12"/>
				</g>
				<g>
					<rect x="562.8" y="692.97" class="st6" width="65.22" height="104.08"/>
					<rect x="568.37" y="697.98" class="st7" width="54.08" height="94.07"/>
					<g class="st8">
						<polygon class="st9" points="622.46,724.49 568.37,780.35 568.37,768.52 622.46,712.66 						"/>
						<polygon class="st9" points="622.46,736.44 568.37,792.3 568.37,788.84 622.46,732.98 						"/>
						<polygon class="st9" points="622.46,706.79 568.37,762.65 568.37,753.78 622.46,697.92 						"/>
					</g>
					<rect x="555.52" y="792.05" class="st14" width="79.79" height="8.12"/>
				</g>
				<g>
					<rect x="675.74" y="692.97" class="st6" width="65.22" height="104.08"/>
					<rect x="681.31" y="697.98" class="st7" width="54.08" height="94.07"/>
					<g class="st8">
						<polygon class="st9" points="735.39,724.49 681.31,780.35 681.31,768.52 735.39,712.66 						"/>
						<polygon class="st9" points="735.39,736.44 681.31,792.3 681.31,788.84 735.39,732.98 						"/>
						<polygon class="st9" points="735.39,706.79 681.31,762.65 681.31,753.78 735.39,697.92 						"/>
					</g>
					<rect x="668.46" y="792.05" class="st14" width="79.79" height="8.12"/>
				</g>
			</g>
			<g>
				<g>
					<rect x="223.99" y="527.15" class="st6" width="65.22" height="104.08"/>
					<rect x="229.56" y="532.15" class="st7" width="54.08" height="94.07"/>
					<g class="st8">
						<polygon class="st9" points="283.64,558.66 229.56,614.52 229.56,602.69 283.64,546.83 						"/>
						<polygon class="st9" points="283.64,570.61 229.56,626.47 229.56,623.01 283.64,567.15 						"/>
						<polygon class="st9" points="283.64,540.96 229.56,596.82 229.56,587.95 283.64,532.09 						"/>
					</g>
					<rect x="216.71" y="626.22" class="st14" width="79.79" height="8.12"/>
				</g>
				<g>
					<rect x="336.93" y="527.15" class="st6" width="65.22" height="104.08"/>
					<rect x="342.5" y="532.15" class="st7" width="54.08" height="94.07"/>
					<g class="st8">
						<polygon class="st9" points="396.58,558.66 342.5,614.52 342.5,602.69 396.58,546.83 						"/>
						<polygon class="st9" points="396.58,570.61 342.5,626.47 342.5,623.01 396.58,567.15 						"/>
						<polygon class="st9" points="396.58,540.96 342.5,596.82 342.5,587.95 396.58,532.09 						"/>
					</g>
					<rect x="329.64" y="626.22" class="st14" width="79.79" height="8.12"/>
				</g>
				<g>
					<rect x="449.87" y="527.15" class="st6" width="65.22" height="104.08"/>
					<rect x="455.44" y="532.15" class="st7" width="54.08" height="94.07"/>
					<g class="st8">
						<polygon class="st9" points="509.52,558.66 455.44,614.52 455.44,602.69 509.52,546.83 						"/>
						<polygon class="st9" points="509.52,570.61 455.44,626.47 455.44,623.01 509.52,567.15 						"/>
						<polygon class="st9" points="509.52,540.96 455.44,596.82 455.44,587.95 509.52,532.09 						"/>
					</g>
					<rect x="442.58" y="626.22" class="st14" width="79.79" height="8.12"/>
				</g>
				<g>
					<rect x="562.8" y="527.15" class="st6" width="65.22" height="104.08"/>
					<rect x="568.37" y="532.15" class="st7" width="54.08" height="94.07"/>
					<g class="st8">
						<polygon class="st9" points="622.46,558.66 568.37,614.52 568.37,602.69 622.46,546.83 						"/>
						<polygon class="st9" points="622.46,570.61 568.37,626.47 568.37,623.01 622.46,567.15 						"/>
						<polygon class="st9" points="622.46,540.96 568.37,596.82 568.37,587.95 622.46,532.09 						"/>
					</g>
					<rect x="555.52" y="626.22" class="st14" width="79.79" height="8.12"/>
				</g>
				<g>
					<rect x="675.74" y="527.15" class="st6" width="65.22" height="104.08"/>
					<rect x="681.31" y="532.15" class="st7" width="54.08" height="94.07"/>
					<g class="st8">
						<polygon class="st9" points="735.39,558.66 681.31,614.52 681.31,602.69 735.39,546.83 						"/>
						<polygon class="st9" points="735.39,570.61 681.31,626.47 681.31,623.01 735.39,567.15 						"/>
						<polygon class="st9" points="735.39,540.96 681.31,596.82 681.31,587.95 735.39,532.09 						"/>
					</g>
					<rect x="668.46" y="626.22" class="st14" width="79.79" height="8.12"/>
				</g>
			</g>
		</g>
	</g>
	<g>
		<g>
			<g>
				<rect x="218.11" y="1347.83" class="st6" width="46.33" height="90.63"/>
				<rect x="222.07" y="1352.19" class="st7" width="38.41" height="81.91"/>
				<g class="st8">
					<polygon class="st9" points="260.48,1375.27 222.07,1423.91 222.07,1413.61 260.48,1364.97 					"/>
					<polygon class="st9" points="260.48,1385.68 222.07,1434.32 222.07,1431.31 260.48,1382.67 					"/>
					<polygon class="st9" points="260.48,1359.86 222.07,1408.5 222.07,1400.78 260.48,1352.14 					"/>
				</g>
			</g>
			<g>
				<rect x="302.85" y="1347.83" class="st6" width="46.33" height="90.63"/>
				<rect x="306.81" y="1352.19" class="st7" width="38.41" height="81.91"/>
				<g class="st8">
					<polygon class="st9" points="345.22,1375.27 306.81,1423.91 306.81,1413.61 345.22,1364.97 					"/>
					<polygon class="st9" points="345.22,1385.68 306.81,1434.32 306.81,1431.31 345.22,1382.67 					"/>
					<polygon class="st9" points="345.22,1359.86 306.81,1408.5 306.81,1400.78 345.22,1352.14 					"/>
				</g>
			</g>
			<g>
				<rect x="260.48" y="1347.83" class="st6" width="46.33" height="90.63"/>
				<rect x="264.44" y="1352.19" class="st7" width="38.41" height="81.91"/>
				<g class="st8">
					<polygon class="st9" points="302.85,1375.27 264.44,1423.91 264.44,1413.61 302.85,1364.97 					"/>
					<polygon class="st9" points="302.85,1385.68 264.44,1434.32 264.44,1431.31 302.85,1382.67 					"/>
					<polygon class="st9" points="302.85,1359.86 264.44,1408.5 264.44,1400.78 302.85,1352.14 					"/>
				</g>
			</g>
		</g>
		<g>
			<g>
				<rect x="615.78" y="1347.83" class="st6" width="46.33" height="90.63"/>
				<rect x="619.73" y="1352.19" class="st7" width="38.41" height="81.91"/>
				<g class="st8">
					<polygon class="st9" points="658.15,1375.27 619.73,1423.91 619.73,1413.61 658.15,1364.97 					"/>
					<polygon class="st9" points="658.15,1385.68 619.73,1434.32 619.73,1431.31 658.15,1382.67 					"/>
					<polygon class="st9" points="658.15,1359.86 619.73,1408.5 619.73,1400.78 658.15,1352.14 					"/>
				</g>
			</g>
			<g>
				<rect x="700.52" y="1347.83" class="st6" width="46.33" height="90.63"/>
				<rect x="704.47" y="1352.19" class="st7" width="38.41" height="81.91"/>
				<g class="st8">
					<polygon class="st9" points="742.89,1375.27 704.47,1423.91 704.47,1413.61 742.89,1364.97 					"/>
					<polygon class="st9" points="742.89,1385.68 704.47,1434.32 704.47,1431.31 742.89,1382.67 					"/>
					<polygon class="st9" points="742.89,1359.86 704.47,1408.5 704.47,1400.78 742.89,1352.14 					"/>
				</g>
			</g>
			<g>
				<rect x="658.15" y="1347.83" class="st6" width="46.33" height="90.63"/>
				<rect x="662.1" y="1352.19" class="st7" width="38.41" height="81.91"/>
				<g class="st8">
					<polygon class="st9" points="700.52,1375.27 662.1,1423.91 662.1,1413.61 700.52,1364.97 					"/>
					<polygon class="st9" points="700.52,1385.68 662.1,1434.32 662.1,1431.31 700.52,1382.67 					"/>
					<polygon class="st9" points="700.52,1359.86 662.1,1408.5 662.1,1400.78 700.52,1352.14 					"/>
				</g>
			</g>
		</g>
	</g>
	<rect x="171.79" y="429.36" class="st14" width="621.37" height="44.27"/>
	<rect x="171.79" y="429.36" class="st15" width="621.37" height="22.13"/>
	<g>
		<rect x="187.49" y="434.4" class="st3" width="589.98" height="1125.86"/>
		<rect x="482.48" y="434.4" class="st16" width="294.99" height="1125.86"/>
	</g>
	<rect x="187.3" y="1511.24" class="st4" width="589.98" height="49.01"/>
	<rect x="187.49" y="473.63" class="st4" width="589.98" height="17.22"/>
	<g>
		<rect x="405.53" y="1421.78" class="st6" width="153.9" height="138.48"/>
		<rect x="418.24" y="1434.96" class="st7" width="128.47" height="125.29"/>
		<rect x="477.3" y="1426.49" class="st6" width="10.36" height="133.77"/>
	</g>
	<g class="st8">
		<g>
			<polygon class="st9" points="477.3,1439.71 418.24,1516.38 418.24,1511.36 477.3,1434.69 			"/>
			<polygon class="st9" points="477.3,1483.16 418.24,1560.26 418.24,1551.2 477.3,1474.53 			"/>
			<polygon class="st9" points="477.3,1467.72 418.24,1544.39 418.24,1527.39 477.3,1450.72 			"/>
		</g>
		<g>
			<polygon class="st9" points="546.71,1439.71 487.66,1516.38 487.66,1511.36 546.71,1434.69 			"/>
			<polygon class="st9" points="546.71,1483.16 487.66,1560.26 487.66,1551.2 546.71,1474.53 			"/>
			<polygon class="st9" points="546.71,1467.72 487.66,1544.39 487.66,1527.39 546.71,1450.72 			"/>
		</g>
	</g>
	<g>
		<path class="st6" d="M468.72,1528.21c0,1.41-1.14,2.55-2.55,2.55l0,0c-1.41,0-2.55-1.14-2.55-2.55v-22.35
			c0-1.41,1.14-2.55,2.55-2.55l0,0c1.41,0,2.55,1.14,2.55,2.55V1528.21z"/>
		<path class="st6" d="M500.97,1528.21c0,1.41-1.14,2.55-2.55,2.55l0,0c-1.41,0-2.55-1.14-2.55-2.55v-22.35
			c0-1.41,1.14-2.55,2.55-2.55l0,0c1.41,0,2.55,1.14,2.55,2.55V1528.21z"/>
	</g>
	<g>
		<rect x="187.49" y="1321.03" class="st17" width="589.98" height="5.33"/>
		<rect x="187.49" y="1326.37" class="st5" width="589.98" height="5.33"/>
	</g>
	<g>
		<rect x="187.49" y="1155.21" class="st17" width="589.98" height="5.33"/>
		<rect x="187.49" y="1160.54" class="st5" width="589.98" height="5.33"/>
	</g>
	<g>
		<rect x="187.49" y="989.38" class="st17" width="589.98" height="5.33"/>
		<rect x="187.49" y="994.71" class="st5" width="589.98" height="5.33"/>
	</g>
	<g>
		<rect x="187.49" y="823.55" class="st17" width="589.98" height="5.33"/>
		<rect x="187.49" y="828.88" class="st5" width="589.98" height="5.33"/>
	</g>
	<g>
		<rect x="187.49" y="657.72" class="st17" width="589.98" height="5.33"/>
		<rect x="187.49" y="663.05" class="st5" width="589.98" height="5.33"/>
	</g>
	<g>
		<g>
			<g>
				<rect x="223.99" y="1190.46" class="st6" width="65.22" height="104.08"/>
				<rect x="229.56" y="1195.46" class="st7" width="54.08" height="94.07"/>
				<g class="st8">
					<polygon class="st9" points="283.64,1221.97 229.56,1277.83 229.56,1266 283.64,1210.14 					"/>
					<polygon class="st9" points="283.64,1233.92 229.56,1289.78 229.56,1286.33 283.64,1230.46 					"/>
					<polygon class="st9" points="283.64,1204.27 229.56,1260.13 229.56,1251.26 283.64,1195.4 					"/>
				</g>
				<rect x="216.71" y="1289.53" class="st14" width="79.79" height="8.12"/>
			</g>
			<g>
				<rect x="336.93" y="1190.46" class="st6" width="65.22" height="104.08"/>
				<rect x="342.5" y="1195.46" class="st7" width="54.08" height="94.07"/>
				<g class="st8">
					<polygon class="st9" points="396.58,1221.97 342.5,1277.83 342.5,1266 396.58,1210.14 					"/>
					<polygon class="st9" points="396.58,1233.92 342.5,1289.78 342.5,1286.33 396.58,1230.46 					"/>
					<polygon class="st9" points="396.58,1204.27 342.5,1260.13 342.5,1251.26 396.58,1195.4 					"/>
				</g>
				<rect x="329.64" y="1289.53" class="st14" width="79.79" height="8.12"/>
			</g>
			<g>
				<rect x="449.87" y="1190.46" class="st6" width="65.22" height="104.08"/>
				<rect x="455.44" y="1195.46" class="st7" width="54.08" height="94.07"/>
				<g class="st8">
					<polygon class="st9" points="509.52,1221.97 455.44,1277.83 455.44,1266 509.52,1210.14 					"/>
					<polygon class="st9" points="509.52,1233.92 455.44,1289.78 455.44,1286.33 509.52,1230.46 					"/>
					<polygon class="st9" points="509.52,1204.27 455.44,1260.13 455.44,1251.26 509.52,1195.4 					"/>
				</g>
				<rect x="442.58" y="1289.53" class="st14" width="79.79" height="8.12"/>
			</g>
			<g>
				<rect x="562.8" y="1190.46" class="st6" width="65.22" height="104.08"/>
				<rect x="568.37" y="1195.46" class="st7" width="54.08" height="94.07"/>
				<g class="st8">
					<polygon class="st9" points="622.46,1221.97 568.37,1277.83 568.37,1266 622.46,1210.14 					"/>
					<polygon class="st9" points="622.46,1233.92 568.37,1289.78 568.37,1286.33 622.46,1230.46 					"/>
					<polygon class="st9" points="622.46,1204.27 568.37,1260.13 568.37,1251.26 622.46,1195.4 					"/>
				</g>
				<rect x="555.52" y="1289.53" class="st14" width="79.79" height="8.12"/>
			</g>
			<g>
				<rect x="675.74" y="1190.46" class="st6" width="65.22" height="104.08"/>
				<rect x="681.31" y="1195.46" class="st7" width="54.08" height="94.07"/>
				<g class="st8">
					<polygon class="st9" points="735.39,1221.97 681.31,1277.83 681.31,1266 735.39,1210.14 					"/>
					<polygon class="st9" points="735.39,1233.92 681.31,1289.78 681.31,1286.33 735.39,1230.46 					"/>
					<polygon class="st9" points="735.39,1204.27 681.31,1260.13 681.31,1251.26 735.39,1195.4 					"/>
				</g>
				<rect x="668.46" y="1289.53" class="st14" width="79.79" height="8.12"/>
			</g>
		</g>
		<g>
			<g>
				<rect x="223.99" y="1024.63" class="st6" width="65.22" height="104.08"/>
				<rect x="229.56" y="1029.64" class="st7" width="54.08" height="94.07"/>
				<g class="st8">
					<polygon class="st9" points="283.64,1056.14 229.56,1112 229.56,1100.18 283.64,1044.32 					"/>
					<polygon class="st9" points="283.64,1068.1 229.56,1123.96 229.56,1120.5 283.64,1064.64 					"/>
					<polygon class="st9" points="283.64,1038.44 229.56,1094.3 229.56,1085.43 283.64,1029.57 					"/>
				</g>
				<rect x="216.71" y="1123.7" class="st14" width="79.79" height="8.12"/>
			</g>
			<g>
				<rect x="336.93" y="1024.63" class="st6" width="65.22" height="104.08"/>
				<rect x="342.5" y="1029.64" class="st7" width="54.08" height="94.07"/>
				<g class="st8">
					<polygon class="st9" points="396.58,1056.14 342.5,1112 342.5,1100.18 396.58,1044.32 					"/>
					<polygon class="st9" points="396.58,1068.1 342.5,1123.96 342.5,1120.5 396.58,1064.64 					"/>
					<polygon class="st9" points="396.58,1038.44 342.5,1094.3 342.5,1085.43 396.58,1029.57 					"/>
				</g>
				<rect x="329.64" y="1123.7" class="st14" width="79.79" height="8.12"/>
			</g>
			<g>
				<rect x="449.87" y="1024.63" class="st6" width="65.22" height="104.08"/>
				<rect x="455.44" y="1029.64" class="st7" width="54.08" height="94.07"/>
				<g class="st8">
					<polygon class="st9" points="509.52,1056.14 455.44,1112 455.44,1100.18 509.52,1044.32 					"/>
					<polygon class="st9" points="509.52,1068.1 455.44,1123.96 455.44,1120.5 509.52,1064.64 					"/>
					<polygon class="st9" points="509.52,1038.44 455.44,1094.3 455.44,1085.43 509.52,1029.57 					"/>
				</g>
				<rect x="442.58" y="1123.7" class="st14" width="79.79" height="8.12"/>
			</g>
			<g>
				<rect x="562.8" y="1024.63" class="st6" width="65.22" height="104.08"/>
				<rect x="568.37" y="1029.64" class="st7" width="54.08" height="94.07"/>
				<g class="st8">
					<polygon class="st9" points="622.46,1056.14 568.37,1112 568.37,1100.18 622.46,1044.32 					"/>
					<polygon class="st9" points="622.46,1068.1 568.37,1123.96 568.37,1120.5 622.46,1064.64 					"/>
					<polygon class="st9" points="622.46,1038.44 568.37,1094.3 568.37,1085.43 622.46,1029.57 					"/>
				</g>
				<rect x="555.52" y="1123.7" class="st14" width="79.79" height="8.12"/>
			</g>
			<g>
				<rect x="675.74" y="1024.63" class="st6" width="65.22" height="104.08"/>
				<rect x="681.31" y="1029.64" class="st7" width="54.08" height="94.07"/>
				<g class="st8">
					<polygon class="st9" points="735.39,1056.14 681.31,1112 681.31,1100.18 735.39,1044.32 					"/>
					<polygon class="st9" points="735.39,1068.1 681.31,1123.96 681.31,1120.5 735.39,1064.64 					"/>
					<polygon class="st9" points="735.39,1038.44 681.31,1094.3 681.31,1085.43 735.39,1029.57 					"/>
				</g>
				<rect x="668.46" y="1123.7" class="st14" width="79.79" height="8.12"/>
			</g>
		</g>
		<g>
			<g>
				<rect x="223.99" y="858.8" class="st6" width="65.22" height="104.08"/>
				<rect x="229.56" y="863.81" class="st7" width="54.08" height="94.07"/>
				<g class="st8">
					<polygon class="st9" points="283.64,890.32 229.56,946.18 229.56,934.35 283.64,878.49 					"/>
					<polygon class="st9" points="283.64,902.27 229.56,958.13 229.56,954.67 283.64,898.81 					"/>
					<polygon class="st9" points="283.64,872.61 229.56,928.47 229.56,919.61 283.64,863.75 					"/>
				</g>
				<rect x="216.71" y="957.88" class="st14" width="79.79" height="8.12"/>
			</g>
			<g>
				<rect x="336.93" y="858.8" class="st6" width="65.22" height="104.08"/>
				<rect x="342.5" y="863.81" class="st7" width="54.08" height="94.07"/>
				<g class="st8">
					<polygon class="st9" points="396.58,890.32 342.5,946.18 342.5,934.35 396.58,878.49 					"/>
					<polygon class="st9" points="396.58,902.27 342.5,958.13 342.5,954.67 396.58,898.81 					"/>
					<polygon class="st9" points="396.58,872.61 342.5,928.47 342.5,919.61 396.58,863.75 					"/>
				</g>
				<rect x="329.64" y="957.88" class="st14" width="79.79" height="8.12"/>
			</g>
			<g>
				<rect x="449.87" y="858.8" class="st6" width="65.22" height="104.08"/>
				<rect x="455.44" y="863.81" class="st7" width="54.08" height="94.07"/>
				<g class="st8">
					<polygon class="st9" points="509.52,890.32 455.44,946.18 455.44,934.35 509.52,878.49 					"/>
					<polygon class="st9" points="509.52,902.27 455.44,958.13 455.44,954.67 509.52,898.81 					"/>
					<polygon class="st9" points="509.52,872.61 455.44,928.47 455.44,919.61 509.52,863.75 					"/>
				</g>
				<rect x="442.58" y="957.88" class="st14" width="79.79" height="8.12"/>
			</g>
			<g>
				<rect x="562.8" y="858.8" class="st6" width="65.22" height="104.08"/>
				<rect x="568.37" y="863.81" class="st7" width="54.08" height="94.07"/>
				<g class="st8">
					<polygon class="st9" points="622.46,890.32 568.37,946.18 568.37,934.35 622.46,878.49 					"/>
					<polygon class="st9" points="622.46,902.27 568.37,958.13 568.37,954.67 622.46,898.81 					"/>
					<polygon class="st9" points="622.46,872.61 568.37,928.47 568.37,919.61 622.46,863.75 					"/>
				</g>
				<rect x="555.52" y="957.88" class="st14" width="79.79" height="8.12"/>
			</g>
			<g>
				<rect x="675.74" y="858.8" class="st6" width="65.22" height="104.08"/>
				<rect x="681.31" y="863.81" class="st7" width="54.08" height="94.07"/>
				<g class="st8">
					<polygon class="st9" points="735.39,890.32 681.31,946.18 681.31,934.35 735.39,878.49 					"/>
					<polygon class="st9" points="735.39,902.27 681.31,958.13 681.31,954.67 735.39,898.81 					"/>
					<polygon class="st9" points="735.39,872.61 681.31,928.47 681.31,919.61 735.39,863.75 					"/>
				</g>
				<rect x="668.46" y="957.88" class="st14" width="79.79" height="8.12"/>
			</g>
		</g>
		<g>
			<g>
				<rect x="223.99" y="692.97" class="st6" width="65.22" height="104.08"/>
				<rect x="229.56" y="697.98" class="st7" width="54.08" height="94.07"/>
				<g class="st8">
					<polygon class="st9" points="283.64,724.49 229.56,780.35 229.56,768.52 283.64,712.66 					"/>
					<polygon class="st9" points="283.64,736.44 229.56,792.3 229.56,788.84 283.64,732.98 					"/>
					<polygon class="st9" points="283.64,706.79 229.56,762.65 229.56,753.78 283.64,697.92 					"/>
				</g>
				<rect x="216.71" y="792.05" class="st14" width="79.79" height="8.12"/>
			</g>
			<g>
				<rect x="336.93" y="692.97" class="st6" width="65.22" height="104.08"/>
				<rect x="342.5" y="697.98" class="st7" width="54.08" height="94.07"/>
				<g class="st8">
					<polygon class="st9" points="396.58,724.49 342.5,780.35 342.5,768.52 396.58,712.66 					"/>
					<polygon class="st9" points="396.58,736.44 342.5,792.3 342.5,788.84 396.58,732.98 					"/>
					<polygon class="st9" points="396.58,706.79 342.5,762.65 342.5,753.78 396.58,697.92 					"/>
				</g>
				<rect x="329.64" y="792.05" class="st14" width="79.79" height="8.12"/>
			</g>
			<g>
				<rect x="449.87" y="692.97" class="st6" width="65.22" height="104.08"/>
				<rect x="455.44" y="697.98" class="st7" width="54.08" height="94.07"/>
				<g class="st8">
					<polygon class="st9" points="509.52,724.49 455.44,780.35 455.44,768.52 509.52,712.66 					"/>
					<polygon class="st9" points="509.52,736.44 455.44,792.3 455.44,788.84 509.52,732.98 					"/>
					<polygon class="st9" points="509.52,706.79 455.44,762.65 455.44,753.78 509.52,697.92 					"/>
				</g>
				<rect x="442.58" y="792.05" class="st14" width="79.79" height="8.12"/>
			</g>
			<g>
				<rect x="562.8" y="692.97" class="st6" width="65.22" height="104.08"/>
				<rect x="568.37" y="697.98" class="st7" width="54.08" height="94.07"/>
				<g class="st8">
					<polygon class="st9" points="622.46,724.49 568.37,780.35 568.37,768.52 622.46,712.66 					"/>
					<polygon class="st9" points="622.46,736.44 568.37,792.3 568.37,788.84 622.46,732.98 					"/>
					<polygon class="st9" points="622.46,706.79 568.37,762.65 568.37,753.78 622.46,697.92 					"/>
				</g>
				<rect x="555.52" y="792.05" class="st14" width="79.79" height="8.12"/>
			</g>
			<g>
				<rect x="675.74" y="692.97" class="st6" width="65.22" height="104.08"/>
				<rect x="681.31" y="697.98" class="st7" width="54.08" height="94.07"/>
				<g class="st8">
					<polygon class="st9" points="735.39,724.49 681.31,780.35 681.31,768.52 735.39,712.66 					"/>
					<polygon class="st9" points="735.39,736.44 681.31,792.3 681.31,788.84 735.39,732.98 					"/>
					<polygon class="st9" points="735.39,706.79 681.31,762.65 681.31,753.78 735.39,697.92 					"/>
				</g>
				<rect x="668.46" y="792.05" class="st14" width="79.79" height="8.12"/>
			</g>
		</g>
		<g>
			<g>
				<rect x="223.99" y="527.15" class="st6" width="65.22" height="104.08"/>
				<rect x="229.56" y="532.15" class="st7" width="54.08" height="94.07"/>
				<g class="st8">
					<polygon class="st9" points="283.64,558.66 229.56,614.52 229.56,602.69 283.64,546.83 					"/>
					<polygon class="st9" points="283.64,570.61 229.56,626.47 229.56,623.01 283.64,567.15 					"/>
					<polygon class="st9" points="283.64,540.96 229.56,596.82 229.56,587.95 283.64,532.09 					"/>
				</g>
				<rect x="216.71" y="626.22" class="st14" width="79.79" height="8.12"/>
			</g>
			<g>
				<rect x="336.93" y="527.15" class="st6" width="65.22" height="104.08"/>
				<rect x="342.5" y="532.15" class="st7" width="54.08" height="94.07"/>
				<g class="st8">
					<polygon class="st9" points="396.58,558.66 342.5,614.52 342.5,602.69 396.58,546.83 					"/>
					<polygon class="st9" points="396.58,570.61 342.5,626.47 342.5,623.01 396.58,567.15 					"/>
					<polygon class="st9" points="396.58,540.96 342.5,596.82 342.5,587.95 396.58,532.09 					"/>
				</g>
				<rect x="329.64" y="626.22" class="st14" width="79.79" height="8.12"/>
			</g>
			<g>
				<rect x="449.87" y="527.15" class="st6" width="65.22" height="104.08"/>
				<rect x="455.44" y="532.15" class="st7" width="54.08" height="94.07"/>
				<g class="st8">
					<polygon class="st9" points="509.52,558.66 455.44,614.52 455.44,602.69 509.52,546.83 					"/>
					<polygon class="st9" points="509.52,570.61 455.44,626.47 455.44,623.01 509.52,567.15 					"/>
					<polygon class="st9" points="509.52,540.96 455.44,596.82 455.44,587.95 509.52,532.09 					"/>
				</g>
				<rect x="442.58" y="626.22" class="st14" width="79.79" height="8.12"/>
			</g>
			<g>
				<rect x="562.8" y="527.15" class="st6" width="65.22" height="104.08"/>
				<rect x="568.37" y="532.15" class="st7" width="54.08" height="94.07"/>
				<g class="st8">
					<polygon class="st9" points="622.46,558.66 568.37,614.52 568.37,602.69 622.46,546.83 					"/>
					<polygon class="st9" points="622.46,570.61 568.37,626.47 568.37,623.01 622.46,567.15 					"/>
					<polygon class="st9" points="622.46,540.96 568.37,596.82 568.37,587.95 622.46,532.09 					"/>
				</g>
				<rect x="555.52" y="626.22" class="st14" width="79.79" height="8.12"/>
			</g>
			<g>
				<rect x="675.74" y="527.15" class="st6" width="65.22" height="104.08"/>
				<rect x="681.31" y="532.15" class="st7" width="54.08" height="94.07"/>
				<g class="st8">
					<polygon class="st9" points="735.39,558.66 681.31,614.52 681.31,602.69 735.39,546.83 					"/>
					<polygon class="st9" points="735.39,570.61 681.31,626.47 681.31,623.01 735.39,567.15 					"/>
					<polygon class="st9" points="735.39,540.96 681.31,596.82 681.31,587.95 735.39,532.09 					"/>
				</g>
				<rect x="668.46" y="626.22" class="st14" width="79.79" height="8.12"/>
			</g>
		</g>
	</g>
	<g>
		<g>
			<g>
				<rect x="218.11" y="1347.83" class="st6" width="46.33" height="90.63"/>
				<rect x="222.07" y="1352.19" class="st7" width="38.41" height="81.91"/>
				<g class="st8">
					<polygon class="st9" points="260.48,1375.27 222.07,1423.91 222.07,1413.61 260.48,1364.97 					"/>
					<polygon class="st9" points="260.48,1385.68 222.07,1434.32 222.07,1431.31 260.48,1382.67 					"/>
					<polygon class="st9" points="260.48,1359.86 222.07,1408.5 222.07,1400.78 260.48,1352.14 					"/>
				</g>
			</g>
			<g>
				<rect x="302.85" y="1347.83" class="st6" width="46.33" height="90.63"/>
				<rect x="306.81" y="1352.19" class="st7" width="38.41" height="81.91"/>
				<g class="st8">
					<polygon class="st9" points="345.22,1375.27 306.81,1423.91 306.81,1413.61 345.22,1364.97 					"/>
					<polygon class="st9" points="345.22,1385.68 306.81,1434.32 306.81,1431.31 345.22,1382.67 					"/>
					<polygon class="st9" points="345.22,1359.86 306.81,1408.5 306.81,1400.78 345.22,1352.14 					"/>
				</g>
			</g>
			<g>
				<rect x="260.48" y="1347.83" class="st6" width="46.33" height="90.63"/>
				<rect x="264.44" y="1352.19" class="st7" width="38.41" height="81.91"/>
				<g class="st8">
					<polygon class="st9" points="302.85,1375.27 264.44,1423.91 264.44,1413.61 302.85,1364.97 					"/>
					<polygon class="st9" points="302.85,1385.68 264.44,1434.32 264.44,1431.31 302.85,1382.67 					"/>
					<polygon class="st9" points="302.85,1359.86 264.44,1408.5 264.44,1400.78 302.85,1352.14 					"/>
				</g>
			</g>
		</g>
		<g>
			<g>
				<rect x="615.78" y="1347.83" class="st6" width="46.33" height="90.63"/>
				<rect x="619.73" y="1352.19" class="st7" width="38.41" height="81.91"/>
				<g class="st8">
					<polygon class="st9" points="658.15,1375.27 619.73,1423.91 619.73,1413.61 658.15,1364.97 					"/>
					<polygon class="st9" points="658.15,1385.68 619.73,1434.32 619.73,1431.31 658.15,1382.67 					"/>
					<polygon class="st9" points="658.15,1359.86 619.73,1408.5 619.73,1400.78 658.15,1352.14 					"/>
				</g>
			</g>
			<g>
				<rect x="700.52" y="1347.83" class="st6" width="46.33" height="90.63"/>
				<rect x="704.47" y="1352.19" class="st7" width="38.41" height="81.91"/>
				<g class="st8">
					<polygon class="st9" points="742.89,1375.27 704.47,1423.91 704.47,1413.61 742.89,1364.97 					"/>
					<polygon class="st9" points="742.89,1385.68 704.47,1434.32 704.47,1431.31 742.89,1382.67 					"/>
					<polygon class="st9" points="742.89,1359.86 704.47,1408.5 704.47,1400.78 742.89,1352.14 					"/>
				</g>
			</g>
			<g>
				<rect x="658.15" y="1347.83" class="st6" width="46.33" height="90.63"/>
				<rect x="662.1" y="1352.19" class="st7" width="38.41" height="81.91"/>
				<g class="st8">
					<polygon class="st9" points="700.52,1375.27 662.1,1423.91 662.1,1413.61 700.52,1364.97 					"/>
					<polygon class="st9" points="700.52,1385.68 662.1,1434.32 662.1,1431.31 700.52,1382.67 					"/>
					<polygon class="st9" points="700.52,1359.86 662.1,1408.5 662.1,1400.78 700.52,1352.14 					"/>
				</g>
			</g>
		</g>
	</g>
	<rect x="171.79" y="429.36" class="st14" width="621.37" height="44.27"/>
	<rect x="171.79" y="429.36" class="st15" width="621.37" height="22.13"/>
	<g>
		<path class="st10" d="M628.11,352.95c6.09,0,11.03,4.94,11.03,11.03v130.76c0,6.09-4.94,11.03-11.03,11.03H336.84
			c-6.09,0-11.03-4.94-11.03-11.03V363.98c0-6.09,4.94-11.03,11.03-11.03H628.11z"/>
	</g>
	<g>
		<path class="st18" d="M614.56,363.46c5.53,0,10.01,4.48,10.01,10.01v111.79c0,5.53-4.48,10.01-10.01,10.01H350.39
			c-5.53,0-10.01-4.48-10.01-10.01V373.47c0-5.53,4.48-10.01,10.01-10.01H614.56z"/>
	</g>
	<g>
		<polygon class="st19" points="364.58,464.65 367.49,470.56 374.01,471.51 369.29,476.11 370.41,482.6 364.58,479.53 358.75,482.6 
			359.86,476.11 355.14,471.51 361.66,470.56 		"/>
		<polygon class="st19" points="402.76,464.65 405.67,470.56 412.19,471.51 407.48,476.11 408.59,482.6 402.76,479.53 396.93,482.6 
			398.04,476.11 393.32,471.51 399.84,470.56 		"/>
		<polygon class="st19" points="441.21,464.65 444.12,470.56 450.64,471.51 445.93,476.11 447.04,482.6 441.21,479.53 435.38,482.6 
			436.49,476.11 431.77,471.51 438.29,470.56 		"/>
		<polygon class="st19" points="481.12,464.65 484.04,470.56 490.56,471.51 485.84,476.11 486.95,482.6 481.12,479.53 475.29,482.6 
			476.4,476.11 471.68,471.51 478.2,470.56 		"/>
		<polygon class="st19" points="522.3,464.65 525.22,470.56 531.74,471.51 527.02,476.11 528.13,482.6 522.3,479.53 516.47,482.6 
			517.58,476.11 512.87,471.51 519.39,470.56 		"/>
		<polygon class="st19" points="560.89,464.65 563.81,470.56 570.33,471.51 565.61,476.11 566.72,482.6 560.89,479.53 555.06,482.6 
			556.17,476.11 551.46,471.51 557.98,470.56 		"/>
		<polygon class="st19" points="600.07,464.65 602.99,470.56 609.51,471.51 604.79,476.11 605.9,482.6 600.07,479.53 594.24,482.6 
			595.35,476.11 590.64,471.51 597.16,470.56 		"/>
	</g>
	<g>
		<g>
			<rect x="217.63" y="532.2" class="st10" width="77.95" height="6.42"/>
			<polygon class="st11" points="288.09,522.46 256.6,522.46 225.11,522.46 217.63,532.2 256.6,532.2 295.58,532.2 			"/>
		</g>
		<g>
			<rect x="330.56" y="532.2" class="st10" width="77.95" height="6.42"/>
			<polygon class="st11" points="401.03,522.46 369.54,522.46 338.05,522.46 330.56,532.2 369.54,532.2 408.51,532.2 			"/>
		</g>
		<g>
			<rect x="443.5" y="532.2" class="st10" width="77.95" height="6.42"/>
			<polygon class="st11" points="513.97,522.46 482.48,522.46 450.99,522.46 443.5,532.2 482.48,532.2 521.45,532.2 			"/>
		</g>
		<g>
			<rect x="556.44" y="532.2" class="st10" width="77.95" height="6.42"/>
			<polygon class="st11" points="626.9,522.46 595.41,522.46 563.93,522.46 556.44,532.2 595.41,532.2 634.39,532.2 			"/>
		</g>
		<g>
			<rect x="669.38" y="532.2" class="st10" width="77.95" height="6.42"/>
			<polygon class="st11" points="739.84,522.46 708.35,522.46 676.86,522.46 669.38,532.2 708.35,532.2 747.33,532.2 			"/>
		</g>
	</g>
	<g>
		<g>
			<rect x="217.63" y="697.99" class="st10" width="77.95" height="6.42"/>
			<polygon class="st11" points="288.09,688.25 256.6,688.25 225.11,688.25 217.63,697.99 256.6,697.99 295.58,697.99 			"/>
		</g>
		<g>
			<rect x="330.56" y="697.99" class="st10" width="77.95" height="6.42"/>
			<polygon class="st11" points="401.03,688.25 369.54,688.25 338.05,688.25 330.56,697.99 369.54,697.99 408.51,697.99 			"/>
		</g>
		<g>
			<rect x="443.5" y="697.99" class="st10" width="77.95" height="6.42"/>
			<polygon class="st11" points="513.97,688.25 482.48,688.25 450.99,688.25 443.5,697.99 482.48,697.99 521.45,697.99 			"/>
		</g>
		<g>
			<rect x="556.44" y="697.99" class="st10" width="77.95" height="6.42"/>
			<polygon class="st11" points="626.9,688.25 595.41,688.25 563.93,688.25 556.44,697.99 595.41,697.99 634.39,697.99 			"/>
		</g>
		<g>
			<rect x="669.38" y="697.99" class="st10" width="77.95" height="6.42"/>
			<polygon class="st11" points="739.84,688.25 708.35,688.25 676.86,688.25 669.38,697.99 708.35,697.99 747.33,697.99 			"/>
		</g>
	</g>
	<g>
		<g>
			<rect x="217.63" y="863.84" class="st10" width="77.95" height="6.42"/>
			<polygon class="st11" points="288.09,854.11 256.6,854.11 225.11,854.11 217.63,863.84 256.6,863.84 295.58,863.84 			"/>
		</g>
		<g>
			<rect x="330.56" y="863.84" class="st10" width="77.95" height="6.42"/>
			<polygon class="st11" points="401.03,854.11 369.54,854.11 338.05,854.11 330.56,863.84 369.54,863.84 408.51,863.84 			"/>
		</g>
		<g>
			<rect x="443.5" y="863.84" class="st10" width="77.95" height="6.42"/>
			<polygon class="st11" points="513.97,854.11 482.48,854.11 450.99,854.11 443.5,863.84 482.48,863.84 521.45,863.84 			"/>
		</g>
		<g>
			<rect x="556.44" y="863.84" class="st10" width="77.95" height="6.42"/>
			<polygon class="st11" points="626.9,854.11 595.41,854.11 563.93,854.11 556.44,863.84 595.41,863.84 634.39,863.84 			"/>
		</g>
		<g>
			<rect x="669.38" y="863.84" class="st10" width="77.95" height="6.42"/>
			<polygon class="st11" points="739.84,854.11 708.35,854.11 676.86,854.11 669.38,863.84 708.35,863.84 747.33,863.84 			"/>
		</g>
	</g>
	<g>
		<g>
			<rect x="217.63" y="1029.65" class="st10" width="77.95" height="6.42"/>
			<polygon class="st11" points="288.09,1019.91 256.6,1019.91 225.11,1019.91 217.63,1029.65 256.6,1029.65 295.58,1029.65 			"/>
		</g>
		<g>
			<rect x="330.56" y="1029.65" class="st10" width="77.95" height="6.42"/>
			<polygon class="st11" points="401.03,1019.91 369.54,1019.91 338.05,1019.91 330.56,1029.65 369.54,1029.65 408.51,1029.65 			
				"/>
		</g>
		<g>
			<rect x="443.5" y="1029.65" class="st10" width="77.95" height="6.42"/>
			<polygon class="st11" points="513.97,1019.91 482.48,1019.91 450.99,1019.91 443.5,1029.65 482.48,1029.65 521.45,1029.65 			"/>
		</g>
		<g>
			<rect x="556.44" y="1029.65" class="st10" width="77.95" height="6.42"/>
			<polygon class="st11" points="626.9,1019.91 595.41,1019.91 563.93,1019.91 556.44,1029.65 595.41,1029.65 634.39,1029.65 			"/>
		</g>
		<g>
			<rect x="669.38" y="1029.65" class="st10" width="77.95" height="6.42"/>
			<polygon class="st11" points="739.84,1019.91 708.35,1019.91 676.86,1019.91 669.38,1029.65 708.35,1029.65 747.33,1029.65 			
				"/>
		</g>
	</g>
	<g>
		<g>
			<rect x="217.63" y="1195.42" class="st10" width="77.95" height="6.42"/>
			<polygon class="st11" points="288.09,1185.68 256.6,1185.68 225.11,1185.68 217.63,1195.42 256.6,1195.42 295.58,1195.42 			"/>
		</g>
		<g>
			<rect x="330.56" y="1195.42" class="st10" width="77.95" height="6.42"/>
			<polygon class="st11" points="401.03,1185.68 369.54,1185.68 338.05,1185.68 330.56,1195.42 369.54,1195.42 408.51,1195.42 			
				"/>
		</g>
		<g>
			<rect x="443.5" y="1195.42" class="st10" width="77.95" height="6.42"/>
			<polygon class="st11" points="513.97,1185.68 482.48,1185.68 450.99,1185.68 443.5,1195.42 482.48,1195.42 521.45,1195.42 			"/>
		</g>
		<g>
			<rect x="556.44" y="1195.42" class="st10" width="77.95" height="6.42"/>
			<polygon class="st11" points="626.9,1185.68 595.41,1185.68 563.93,1185.68 556.44,1195.42 595.41,1195.42 634.39,1195.42 			"/>
		</g>
		<g>
			<rect x="669.38" y="1195.42" class="st10" width="77.95" height="6.42"/>
			<polygon class="st11" points="739.84,1185.68 708.35,1185.68 676.86,1185.68 669.38,1195.42 708.35,1195.42 747.33,1195.42 			
				"/>
		</g>
	</g>
	<g>
		<g>
			<rect x="217.63" y="532.2" class="st10" width="77.95" height="6.42"/>
			<polygon class="st11" points="288.09,522.46 256.6,522.46 225.11,522.46 217.63,532.2 256.6,532.2 295.58,532.2 			"/>
		</g>
		<g>
			<rect x="330.56" y="532.2" class="st10" width="77.95" height="6.42"/>
			<polygon class="st11" points="401.03,522.46 369.54,522.46 338.05,522.46 330.56,532.2 369.54,532.2 408.51,532.2 			"/>
		</g>
		<g>
			<rect x="443.5" y="532.2" class="st10" width="77.95" height="6.42"/>
			<polygon class="st11" points="513.97,522.46 482.48,522.46 450.99,522.46 443.5,532.2 482.48,532.2 521.45,532.2 			"/>
		</g>
		<g>
			<rect x="556.44" y="532.2" class="st10" width="77.95" height="6.42"/>
			<polygon class="st11" points="626.9,522.46 595.41,522.46 563.93,522.46 556.44,532.2 595.41,532.2 634.39,532.2 			"/>
		</g>
		<g>
			<rect x="669.38" y="532.2" class="st10" width="77.95" height="6.42"/>
			<polygon class="st11" points="739.84,522.46 708.35,522.46 676.86,522.46 669.38,532.2 708.35,532.2 747.33,532.2 			"/>
		</g>
	</g>
	<g>
		<g>
			<rect x="147.04" y="532.2" class="st10" width="40.45" height="6.42"/>
			<polygon class="st11" points="187.49,522.46 147.04,532.2 177.41,532.2 187.49,532.2 			"/>
		</g>
		<g>
			<rect x="147.04" y="697.99" class="st10" width="40.45" height="6.42"/>
			<polygon class="st11" points="187.49,688.25 147.04,697.99 177.41,697.99 187.49,697.99 			"/>
		</g>
		<g>
			<rect x="147.04" y="863.84" class="st10" width="40.45" height="6.42"/>
			<polygon class="st11" points="187.49,854.11 147.04,863.84 177.41,863.84 187.49,863.84 			"/>
		</g>
		<g>
			<rect x="147.04" y="1029.65" class="st10" width="40.45" height="6.42"/>
			<polygon class="st11" points="187.49,1019.91 147.04,1029.65 177.41,1029.65 187.49,1029.65 			"/>
		</g>
		<g>
			<rect x="147.04" y="1195.42" class="st10" width="40.45" height="6.42"/>
			<polygon class="st11" points="187.49,1185.68 147.04,1195.42 177.41,1195.42 187.49,1195.42 			"/>
		</g>
	</g>
	<g>
		<g>
			<rect x="777.47" y="532.2" class="st10" width="40.45" height="6.42"/>
			<polygon class="st11" points="777.47,522.46 817.91,532.2 787.55,532.2 777.47,532.2 			"/>
		</g>
		<g>
			<rect x="777.47" y="697.99" class="st10" width="40.45" height="6.42"/>
			<polygon class="st11" points="777.47,688.25 817.91,697.99 787.55,697.99 777.47,697.99 			"/>
		</g>
		<g>
			<rect x="777.47" y="863.84" class="st10" width="40.45" height="6.42"/>
			<polygon class="st11" points="777.47,854.11 817.91,863.84 787.55,863.84 777.47,863.84 			"/>
		</g>
		<g>
			<rect x="777.47" y="1029.65" class="st10" width="40.45" height="6.42"/>
			<polygon class="st11" points="777.47,1019.91 817.91,1029.65 787.55,1029.65 777.47,1029.65 			"/>
		</g>
		<g>
			<rect x="777.47" y="1195.42" class="st10" width="40.45" height="6.42"/>
			<polygon class="st11" points="777.47,1185.68 817.91,1195.42 787.55,1195.42 777.47,1195.42 			"/>
		</g>
	</g>
	<g>
		<g>
			<rect x="377.05" y="1413.35" class="st20" width="6.98" height="122.31"/>
			<rect x="371.37" y="1527.06" class="st2" width="18.35" height="33.19"/>
		</g>
		<g>
			<rect x="580.92" y="1413.35" class="st20" width="6.98" height="122.31"/>
			<rect x="575.24" y="1527.06" class="st2" width="18.35" height="33.19"/>
		</g>
	</g>
	<g>
		<g>
			<path class="st10" d="M602.56,1435.97c-11.29-52.67-60.76-92.34-120.08-92.34c-59.32,0-108.79,39.66-120.08,92.34H602.56z"/>
			<path class="st11" d="M581.23,1435.97c-9.29-52.67-49.97-92.34-98.75-92.34s-89.47,39.66-98.75,92.34H581.23z"/>
			<path class="st10" d="M551.08,1435.97c-6.45-52.67-34.71-92.34-68.6-92.34c-33.89,0-62.15,39.66-68.6,92.34H551.08z"/>
			<path class="st11" d="M509.16,1435.97c-2.51-52.67-13.5-92.34-26.69-92.34c-13.18,0-24.18,39.66-26.69,92.34H509.16z"/>
		</g>
		<g>
			<path class="st12" d="M377.39,1450.8c8.29,0,15.01-6.64,15.01-14.83h-30.02C362.38,1444.16,369.1,1450.8,377.39,1450.8z"/>
			<path class="st12" d="M407.42,1450.8c8.29,0,15.01-6.64,15.01-14.83H392.4C392.4,1444.16,399.12,1450.8,407.42,1450.8z"/>
			<path class="st12" d="M437.44,1450.8c8.29,0,15.01-6.64,15.01-14.83h-30.02C422.43,1444.16,429.15,1450.8,437.44,1450.8z"/>
			<path class="st12" d="M467.46,1450.8c8.29,0,15.01-6.64,15.01-14.83h-30.02C452.45,1444.16,459.17,1450.8,467.46,1450.8z"/>
			<path class="st12" d="M497.49,1450.8c8.29,0,15.01-6.64,15.01-14.83h-30.02C482.48,1444.16,489.2,1450.8,497.49,1450.8z"/>
			<path class="st12" d="M527.51,1450.8c8.29,0,15.01-6.64,15.01-14.83H512.5C512.5,1444.16,519.22,1450.8,527.51,1450.8z"/>
			<path class="st12" d="M557.54,1450.8c8.29,0,15.01-6.64,15.01-14.83h-30.02C542.53,1444.16,549.25,1450.8,557.54,1450.8z"/>
			<path class="st12" d="M587.56,1450.8c8.29,0,15.01-6.64,15.01-14.83h-30.02C572.55,1444.16,579.27,1450.8,587.56,1450.8z"/>
		</g>
	</g>
</g>
<g id="Layer_3">
	<g>
		<path class="st9" d="M373.12,413.91h6.55v39.85h-6.55V413.91z M376.6,430.93h22.67v6.28H376.6V430.93z M395.35,413.91h6.55v39.85
			h-6.55V413.91z"/>
		<path class="st9" d="M417.19,452.34c-2.16-1.22-3.83-2.93-5.02-5.15c-1.19-2.22-1.78-4.79-1.78-7.72v-11.29
			c0-2.92,0.59-5.5,1.78-7.72c1.19-2.22,2.86-3.94,5.02-5.15c2.15-1.21,4.65-1.82,7.48-1.82c2.83,0,5.33,0.61,7.48,1.82
			c2.15,1.22,3.83,2.93,5.02,5.15c1.19,2.22,1.78,4.79,1.78,7.72v11.29c0,2.92-0.59,5.5-1.78,7.72c-1.19,2.22-2.86,3.94-5.02,5.15
			c-2.16,1.21-4.65,1.82-7.48,1.82C421.84,454.17,419.34,453.56,417.19,452.34z M428.63,446.68c1.14-0.66,2.02-1.59,2.65-2.81
			c0.62-1.22,0.93-2.62,0.93-4.21v-11.67c0-1.59-0.31-2.99-0.93-4.21c-0.62-1.22-1.5-2.15-2.65-2.81c-1.14-0.66-2.46-0.99-3.96-0.99
			s-2.82,0.33-3.96,0.99c-1.14,0.66-2.02,1.59-2.64,2.81c-0.62,1.22-0.93,2.62-0.93,4.21v11.67c0,1.59,0.31,2.99,0.93,4.21
			c0.62,1.22,1.5,2.15,2.64,2.81c1.14,0.66,2.46,0.99,3.96,0.99S427.49,447.34,428.63,446.68z"/>
		<path class="st9" d="M453.08,453.6c-1.76-0.37-3.42-0.93-4.96-1.66c-1.54-0.73-2.96-1.63-4.23-2.71l3.48-5.24
			c1.53,1.3,3.26,2.28,5.17,2.95c1.91,0.67,3.93,1,6.07,1c2.67,0,4.74-0.47,6.21-1.43c1.47-0.95,2.21-2.29,2.21-4.03v-0.03
			c0-1.22-0.33-2.2-0.99-2.92c-0.66-0.72-1.52-1.25-2.58-1.59c-1.06-0.34-2.42-0.65-4.08-0.94c-0.05-0.02-0.11-0.03-0.17-0.03
			c-0.05,0-0.11-0.01-0.16-0.03l-0.49-0.08c-2.67-0.44-4.86-0.96-6.58-1.56c-1.72-0.6-3.18-1.68-4.38-3.23
			c-1.21-1.55-1.81-3.75-1.81-6.61v-0.03c0-2.52,0.57-4.68,1.7-6.47c1.13-1.79,2.78-3.15,4.93-4.08c2.15-0.93,4.75-1.4,7.78-1.4
			c1.43,0,2.85,0.16,4.29,0.48c1.43,0.32,2.84,0.79,4.22,1.4c1.38,0.61,2.72,1.38,4.02,2.29l-3.18,5.4c-1.53-1.1-3.1-1.93-4.69-2.49
			c-1.59-0.57-3.14-0.85-4.66-0.85c-2.52,0-4.47,0.46-5.85,1.38c-1.38,0.92-2.07,2.22-2.07,3.9v0.03c0,1.26,0.36,2.26,1.07,2.99
			c0.71,0.73,1.6,1.27,2.67,1.6c1.07,0.34,2.56,0.7,4.48,1.08c0.07,0.02,0.14,0.03,0.21,0.04c0.06,0.01,0.13,0.02,0.21,0.04
			c0.09,0.02,0.19,0.04,0.3,0.05c0.11,0.02,0.21,0.04,0.3,0.05c2.47,0.49,4.53,1.09,6.18,1.78c1.65,0.69,3.04,1.81,4.15,3.34
			c1.11,1.53,1.67,3.63,1.67,6.28v0.05c0,2.49-0.59,4.61-1.75,6.39c-1.17,1.77-2.87,3.12-5.1,4.04c-2.23,0.92-4.92,1.38-8.06,1.38
			C456.68,454.17,454.84,453.98,453.08,453.6z"/>
		<path class="st9" d="M475.43,413.91h28.67v6.28h-28.67V413.91z M486.5,417.17h6.52v36.59h-6.52V417.17z"/>
		<path class="st9" d="M515.44,453.75h-6.68v-39.85h6.68V453.75z"/>
		<path class="st9" d="M524.49,413.91h7.12l17.16,30.67l-0.66,0.71v-31.38h6.36v39.82h-7.18l-17.1-30.2l0.66-0.71v30.91h-6.36
			V413.91z"/>
		<path class="st9" d="M591.57,431.88v7.37c0,2.96-0.59,5.57-1.77,7.82c-1.18,2.26-2.84,4-4.99,5.23s-4.64,1.85-7.47,1.85
			c-2.85,0-5.36-0.58-7.54-1.74c-2.17-1.16-3.86-2.8-5.05-4.92c-1.2-2.12-1.8-4.58-1.8-7.37v-11.76c0-2.96,0.59-5.56,1.77-7.81
			c1.18-2.25,2.84-3.99,4.99-5.22c2.15-1.23,4.64-1.85,7.47-1.85c2.32,0,4.47,0.49,6.44,1.47c1.97,0.98,3.62,2.36,4.93,4.15
			c1.32,1.79,2.21,3.86,2.69,6.22h-7.07c-0.31-1.1-0.82-2.04-1.52-2.82c-0.7-0.79-1.53-1.38-2.49-1.79
			c-0.96-0.41-1.95-0.62-2.97-0.62c-1.5,0-2.81,0.34-3.93,1.03c-1.12,0.69-1.99,1.65-2.62,2.91s-0.93,2.7-0.93,4.34v11.76
			c0,1.48,0.32,2.78,0.95,3.9c0.63,1.12,1.52,1.99,2.69,2.6c1.16,0.61,2.5,0.92,4.02,0.92c1.5,0,2.81-0.32,3.95-0.97
			c1.13-0.65,2-1.59,2.62-2.82c0.61-1.23,0.92-2.7,0.92-4.4v-1.21h-7.07v-6.28H591.57z"/>
	</g>
</g>
<g id="Layer_5">
	<g>
		<path d="M415.28,333.72c-12.33-17.7-14.71-75.36,14.02-110.85c14.22-17,17.89-28.83,18.99-44.84
			c0.8-18.19-12.82-72.37,38.47-76.45c51.99-4.18,49.11,47.12,48.81,74.26c-0.2,22.87,16.8,35.89,28.53,53.78
			c21.57,32.81,19.78,89.27-4.08,119.89c-30.22,38.27-56.07,21.67-73.27,23.06C454.55,374.48,453.46,391.58,415.28,333.72
			L415.28,333.72z"/>
		
			<linearGradient id="SVGID_1_" gradientUnits="userSpaceOnUse" x1="193.1674" y1="1254.2228" x2="193.1945" y2="1255.0229" gradientTransform="matrix(34.9105 0 0 -92.0707 -6192.7412 115821.4063)">
			<stop  offset="0" style="stop-color:#FFEED7"/>
			<stop  offset="1" style="stop-color:#BDBFC2"/>
		</linearGradient>
		<path class="st21" d="M540.74,233.01c8.95,8.25,32.11,45.13-4.57,68.2c-12.92,8.05,11.53,38.67,23.26,23.86
			c20.78-26.64,7.56-69.19-4.97-84.4C546.11,229.93,533.19,225.75,540.74,233.01L540.74,233.01z"/>
		<path class="st22" d="M538.26,228.04c14.71,11.93,41.46,53.68,2.39,80.92c-12.82,8.45,11.33,35.19,24.95,21.57
			c47.22-47.52-1.19-102.1-17.89-120.89C532.79,193.24,519.57,213.42,538.26,228.04L538.26,228.04z"/>
		
			<linearGradient id="SVGID_2_" gradientUnits="userSpaceOnUse" x1="191.0454" y1="1258.9487" x2="190.9563" y2="1257.9946" gradientTransform="matrix(60.1714 0 0 -45.7738 -11008.0479 57732.668)">
			<stop  offset="0" style="stop-color:#FFFFFF;stop-opacity:0.8"/>
			<stop  offset="1" style="stop-color:#FFFFFF;stop-opacity:0"/>
		</linearGradient>
		<path class="st23" d="M517.08,127.53c-0.5,13.62-15.51,25.45-33.5,26.54c-17.99,1.09-32.11-9.25-31.61-22.87l0,0
			c0.5-13.62,15.51-25.45,33.5-26.54C503.46,103.67,517.58,113.91,517.08,127.53L517.08,127.53L517.08,127.53z"/>
		
			<linearGradient id="SVGID_3_" gradientUnits="userSpaceOnUse" x1="196.9223" y1="1261.6167" x2="196.8799" y2="1262.4666" gradientTransform="matrix(19.2664 0 0 -29.5862 -3329.9302 37499.2031)">
			<stop  offset="0" style="stop-color:#FFEED7"/>
			<stop  offset="1" style="stop-color:#BDBFC2"/>
		</linearGradient>
		<path class="st24" d="M474.04,159.94c0.5,8.85-3.68,16.3-9.44,16.6s-10.84-6.56-11.33-15.41l0,0c-0.5-8.85,3.68-16.3,9.44-16.6
			C468.47,144.23,473.54,151.09,474.04,159.94L474.04,159.94L474.04,159.94z"/>
		
			<linearGradient id="SVGID_4_" gradientUnits="userSpaceOnUse" x1="194.5869" y1="1260.2161" x2="194.5869" y2="1260.9921" gradientTransform="matrix(26.6439 0 0 -34.3505 -4685.6646 43462.5352)">
			<stop  offset="0" style="stop-color:#FFEED7"/>
			<stop  offset="1" style="stop-color:#BDBFC2"/>
		</linearGradient>
		<path class="st25" d="M484.48,160.64c0.2,10.24,6.86,18.39,14.81,18.19c7.95-0.2,14.22-8.65,14.02-18.99l0,0
			c-0.2-10.24-6.86-18.39-14.81-18.19C490.54,141.85,484.18,150.4,484.48,160.64L484.48,160.64L484.48,160.64z"/>
		<path d="M491.04,162.92c-0.1,5.67,2.68,10.24,6.36,10.24c3.58,0,6.66-4.57,6.76-10.14l0,0c0.1-5.67-2.68-10.24-6.36-10.24
			S491.14,157.35,491.04,162.92L491.04,162.92L491.04,162.92z"/>
		<path d="M468.07,163.02c0.5,4.67-1.29,8.65-3.88,9.05c-2.58,0.3-5.07-3.18-5.57-7.85l0,0c-0.5-4.67,1.29-8.65,3.88-9.05
			C465.09,154.87,467.58,158.35,468.07,163.02L468.07,163.02L468.07,163.02z"/>
		
			<linearGradient id="SVGID_5_" gradientUnits="userSpaceOnUse" x1="212.1091" y1="1281.329" x2="212.0231" y2="1280.3461" gradientTransform="matrix(7.141 0 0 -10.4891 -1018.0012 13594.6855)">
			<stop  offset="0" style="stop-color:#FFFFFF;stop-opacity:0.65"/>
			<stop  offset="1" style="stop-color:#FFFFFF;stop-opacity:0"/>
		</linearGradient>
		<path class="st26" d="M492.53,159.74c-0.3,3.18,1.19,5.77,3.28,5.96c2.09,0.2,4.08-2.29,4.37-5.37l0,0
			c0.3-3.18-1.19-5.77-3.28-5.96C494.81,154.17,492.83,156.66,492.53,159.74L492.53,159.74L492.53,159.74z"/>
		
			<linearGradient id="SVGID_6_" gradientUnits="userSpaceOnUse" x1="219.1481" y1="1286.7253" x2="219.2479" y2="1285.7721" gradientTransform="matrix(5.4168 0 0 -8.8403 -724.3447 11531.665)">
			<stop  offset="0" style="stop-color:#FFFFFF;stop-opacity:0.65"/>
			<stop  offset="1" style="stop-color:#FFFFFF;stop-opacity:0"/>
		</linearGradient>
		<path class="st27" d="M465.89,160.54c0.3,2.58-0.8,4.87-2.39,5.07c-1.59,0.2-3.08-1.79-3.38-4.47l0,0
			c-0.3-2.58,0.8-4.87,2.39-5.07C464.1,155.86,465.59,157.95,465.89,160.54L465.89,160.54L465.89,160.54z"/>
		
			<linearGradient id="SVGID_7_" gradientUnits="userSpaceOnUse" x1="189.6792" y1="1253.0148" x2="189.6792" y2="1253.5476" gradientTransform="matrix(113.162 0 0 -171.2375 -20976.5059 214906.625)">
			<stop  offset="0" style="stop-color:#FFEED7"/>
			<stop  offset="1" style="stop-color:#BDBFC2"/>
		</linearGradient>
		<path class="st28" d="M434.57,258.16c7.06-16.01,22.07-44.14,22.37-65.91c0-17.3,51.8-21.47,55.97-4.18s14.71,43.15,21.47,55.67
			c6.76,12.43,26.34,52.09,5.47,86.69c-18.79,30.62-75.75,54.88-106.17-4.18C423.34,305.78,425.22,280.43,434.57,258.16
			L434.57,258.16z"/>
		
			<linearGradient id="SVGID_8_" gradientUnits="userSpaceOnUse" x1="191.6035" y1="1254.0627" x2="191.487" y2="1254.8901" gradientTransform="matrix(49.0314 0 0 -102.1718 -8955.1465 128474.7109)">
			<stop  offset="0" style="stop-color:#FFEED7"/>
			<stop  offset="1" style="stop-color:#BDBFC2"/>
		</linearGradient>
		<path class="st29" d="M428.21,246.23c-6.06,11.43-18.59,41.46,12.03,57.86c32.91,17.5,32.81,53.39-6.76,36.29
			c-36.19-15.41-20.18-77.84-10.04-92.75C430,237.18,439.94,224.36,428.21,246.23L428.21,246.23z"/>
		<path class="st30" d="M433.38,233.31c-9.64,15.71-32.71,52.69-1.79,71.98c41.56,25.55,29.82,51-8.15,28.03
			c-53.49-32.01-6.46-96.63,14.91-121.29C462.8,184.4,443.02,217.1,433.38,233.31L433.38,233.31z"/>
		<path class="st31" d="M413.79,380.34c-22.27-11.83-54.58,2.29-42.85-29.72c2.39-7.26-3.48-18.19,0.3-25.25
			c4.47-8.65,14.12-6.76,19.88-12.53c5.67-5.96,9.25-16.3,19.88-14.71c10.54,1.59,17.6,14.51,24.95,30.42
			c5.47,11.33,24.75,27.34,23.46,40.06C457.83,388.1,435.66,391.77,413.79,380.34L413.79,380.34z"/>
		
			<linearGradient id="SVGID_9_" gradientUnits="userSpaceOnUse" x1="192.8407" y1="1258.8361" x2="192.7888" y2="1261.0839" gradientTransform="matrix(37.7698 0 0 -36.2386 -6725.6553 45954.8359)">
			<stop  offset="0" style="stop-color:#FFEED7"/>
			<stop  offset="1" style="stop-color:#BDBFC2"/>
		</linearGradient>
		<path class="st32" d="M575.94,305.18c-3.38,6.36-17.5,16.6-26.94,13.92c-9.54-2.58-13.92-17.1-12.03-28.13
			c1.79-12.33,12.03-13.02,24.95-6.86C575.84,290.97,580.01,296.73,575.94,305.18L575.94,305.18z"/>
		<path class="st31" d="M568.18,374.87c16.3-19.78,52.59-15.71,28.13-42.85c-5.17-5.87-3.58-18.39-9.94-23.76
			c-7.46-6.56-15.71-1.19-23.26-4.57c-7.56-3.68-15.51-10.74-24.75-5.77c-9.25,5.07-10.24,18.19-11.13,35.49
			c-0.8,12.43-12.13,33.2-6.06,44.64C529.91,395.75,552.67,393.37,568.18,374.87L568.18,374.87z"/>
		<path d="M573.75,304.89c-2.98,5.17-15.11,13.32-23.16,11.13c-8.25-2.09-12.03-13.72-10.34-22.47c1.49-9.94,10.34-10.44,21.47-5.47
			C573.55,293.45,577.23,298.03,573.75,304.89L573.75,304.89z"/>
		<path class="st31" d="M462.8,172.27c3.98-3.68,13.62-14.91,31.91-3.18c3.38,2.19,6.16,2.39,12.63,5.17
			c13.02,5.37,6.86,18.29-7.06,22.67c-5.96,1.89-11.33,9.15-22.07,8.45c-9.25-0.5-11.63-6.56-17.3-9.84
			c-10.04-5.67-11.53-13.32-6.06-17.4C460.32,174.06,462.41,172.57,462.8,172.27L462.8,172.27z"/>
		<path class="st33" d="M477.81,196.19c-9.48,0-16.2-6.3-19.81-9.68c-0.87-0.82-1.6-1.49-1.85-2.15c-0.4-1.08,1-2.1,2.11-1.28
			c0.48,0.35,0.97,0.87,1.6,1.46c3.57,3.35,9.55,8.95,17.96,8.95c7.24,0,14.39-4.3,20.14-7.75c3.11-1.87,5.7-3.43,7.87-4.07
			c0.84-0.25,1.68,0.36,1.73,1.23v0c0.03,0.62-0.35,1.18-0.95,1.36c-1.84,0.54-4.48,2.13-7.25,3.8
			C493.31,191.67,485.8,196.19,477.81,196.19z"/>
	</g>
</g>
</svg>
