<?xml version="1.0" encoding="utf-8"?>
<!-- Generator: Adobe Illustrator 24.1.3, SVG Export Plug-In . SVG Version: 6.00 Build 0)  -->
<svg version="1.1" id="Layer_1" xmlns="http://www.w3.org/2000/svg" xmlns:xlink="http://www.w3.org/1999/xlink" x="0px" y="0px"
	 viewBox="0 0 371.5 374.7" style="enable-background:new 0 0 371.5 374.7;" xml:space="preserve">
<style type="text/css">
	.st0{fill-rule:evenodd;clip-rule:evenodd;fill:#FFFFFF;}
</style>
<g id="XMLID_3_">
	<rect id="XMLID_460_" x="23.2" y="253.2" class="st0" width="0.1" height="0.1"/>
	<rect id="XMLID_459_" x="21.9" y="239.9" class="st0" width="2.7" height="2.7"/>
	<rect id="XMLID_458_" x="20.3" y="226.2" class="st0" width="5.9" height="5.9"/>
	<rect id="XMLID_457_" x="19.1" y="213" class="st0" width="8.3" height="8.3"/>
	<rect id="XMLID_456_" x="18.3" y="200.1" class="st0" width="9.9" height="9.9"/>
	<rect id="XMLID_455_" x="18" y="187.7" class="st0" width="10.6" height="10.6"/>
	<rect id="XMLID_454_" x="18" y="175.7" class="st0" width="10.6" height="10.6"/>
	<rect id="XMLID_453_" x="18.3" y="164" class="st0" width="9.8" height="9.8"/>
	<rect id="XMLID_452_" x="19.1" y="152.8" class="st0" width="8.2" height="8.2"/>
	<rect id="XMLID_451_" x="20.3" y="141.9" class="st0" width="5.8" height="5.8"/>
	<rect id="XMLID_450_" x="21.9" y="131.5" class="st0" width="2.6" height="2.6"/>
	<rect id="XMLID_449_" x="23.2" y="120.7" class="st0" width="0" height="0"/>
	<rect id="XMLID_448_" x="35.2" y="277.3" class="st0" width="0.1" height="0.1"/>
	<rect id="XMLID_447_" x="33.2" y="263.2" class="st0" width="4.3" height="4.3"/>
	<rect id="XMLID_446_" x="30.6" y="248.6" class="st0" width="9.4" height="9.4"/>
	<rect id="XMLID_445_" x="29.9" y="235.8" class="st0" width="10.8" height="10.8"/>
	<rect id="XMLID_444_" x="29.9" y="223.8" class="st0" width="10.8" height="10.8"/>
	<rect id="XMLID_443_" x="29.9" y="211.7" class="st0" width="10.8" height="10.8"/>
	<rect id="XMLID_442_" x="29.9" y="199.7" class="st0" width="10.8" height="10.8"/>
	<rect id="XMLID_441_" x="29.9" y="187.6" class="st0" width="10.8" height="10.8"/>
	<rect id="XMLID_440_" x="29.9" y="175.6" class="st0" width="10.8" height="10.8"/>
	<rect id="XMLID_439_" x="29.9" y="163.5" class="st0" width="10.8" height="10.8"/>
	<rect id="XMLID_438_" x="29.9" y="151.5" class="st0" width="10.8" height="10.8"/>
	<rect id="XMLID_437_" x="29.9" y="139.4" class="st0" width="10.8" height="10.8"/>
	<rect id="XMLID_436_" x="29.9" y="127.4" class="st0" width="10.8" height="10.8"/>
	<rect id="XMLID_435_" x="30.6" y="116.1" class="st0" width="9.3" height="9.3"/>
	<rect id="XMLID_434_" x="33.2" y="106.6" class="st0" width="4.2" height="4.2"/>
	<rect id="XMLID_433_" x="35.3" y="96.6" class="st0" width="0.1" height="0.1"/>
	<rect id="XMLID_432_" x="46.5" y="288.6" class="st0" width="1.7" height="1.7"/>
	<rect id="XMLID_431_" x="43" y="273.1" class="st0" width="8.6" height="8.6"/>
	<rect id="XMLID_430_" x="41.9" y="259.9" class="st0" width="10.8" height="10.8"/>
	<rect id="XMLID_429_" x="41.9" y="247.9" class="st0" width="10.8" height="10.8"/>
	<rect id="XMLID_428_" x="41.9" y="235.8" class="st0" width="10.8" height="10.8"/>
	<rect id="XMLID_427_" x="41.9" y="223.8" class="st0" width="10.8" height="10.8"/>
	<rect id="XMLID_426_" x="41.9" y="211.7" class="st0" width="10.8" height="10.8"/>
	<rect id="XMLID_425_" x="41.9" y="199.7" class="st0" width="10.8" height="10.8"/>
	<rect id="XMLID_424_" x="41.9" y="187.6" class="st0" width="10.8" height="10.8"/>
	<rect id="XMLID_423_" x="41.9" y="175.6" class="st0" width="10.8" height="10.8"/>
	<rect id="XMLID_422_" x="41.9" y="163.5" class="st0" width="10.8" height="10.8"/>
	<rect id="XMLID_421_" x="41.9" y="151.5" class="st0" width="10.8" height="10.8"/>
	<rect id="XMLID_420_" x="41.9" y="139.4" class="st0" width="10.8" height="10.8"/>
	<rect id="XMLID_419_" x="41.9" y="127.4" class="st0" width="10.8" height="10.8"/>
	<rect id="XMLID_418_" x="41.9" y="115.3" class="st0" width="10.8" height="10.8"/>
	<rect id="XMLID_417_" x="41.9" y="103.3" class="st0" width="10.8" height="10.8"/>
	<rect id="XMLID_416_" x="43.1" y="92.3" class="st0" width="8.6" height="8.6"/>
	<rect id="XMLID_415_" x="46.5" y="83.8" class="st0" width="1.7" height="1.7"/>
	<rect id="XMLID_414_" x="57.8" y="299.9" class="st0" width="3.1" height="3.1"/>
	<rect id="XMLID_413_" x="54.2" y="284.3" class="st0" width="10.3" height="10.3"/>
	<rect id="XMLID_412_" x="54" y="272" class="st0" width="10.8" height="10.8"/>
	<rect id="XMLID_411_" x="54" y="259.9" class="st0" width="10.8" height="10.8"/>
	<rect id="XMLID_410_" x="54" y="247.9" class="st0" width="10.8" height="10.8"/>
	<rect id="XMLID_409_" x="54" y="235.8" class="st0" width="10.8" height="10.8"/>
	<rect id="XMLID_408_" x="54" y="223.8" class="st0" width="10.8" height="10.8"/>
	<rect id="XMLID_407_" x="54" y="211.7" class="st0" width="10.8" height="10.8"/>
	<rect id="XMLID_406_" x="54" y="199.7" class="st0" width="10.8" height="10.8"/>
	<rect id="XMLID_405_" x="54" y="187.6" class="st0" width="10.8" height="10.8"/>
	<rect id="XMLID_404_" x="54" y="175.6" class="st0" width="10.8" height="10.8"/>
	<rect id="XMLID_403_" x="54" y="163.5" class="st0" width="10.8" height="10.8"/>
	<rect id="XMLID_402_" x="54" y="151.5" class="st0" width="10.8" height="10.8"/>
	<rect id="XMLID_401_" x="54" y="139.4" class="st0" width="10.8" height="10.8"/>
	<rect id="XMLID_400_" x="54" y="127.4" class="st0" width="10.8" height="10.8"/>
	<rect id="XMLID_399_" x="54" y="115.3" class="st0" width="10.8" height="10.8"/>
	<rect id="XMLID_398_" x="54" y="103.3" class="st0" width="10.8" height="10.8"/>
	<rect id="XMLID_397_" x="54" y="91.2" class="st0" width="10.8" height="10.8"/>
	<rect id="XMLID_396_" x="54.2" y="79.5" class="st0" width="10.3" height="10.3"/>
	<rect id="XMLID_395_" x="57.8" y="71" class="st0" width="3.1" height="3.1"/>
	<rect id="XMLID_394_" x="69.8" y="311.9" class="st0" width="3.2" height="3.2"/>
	<rect id="XMLID_393_" x="66.1" y="296.2" class="st0" width="10.6" height="10.6"/>
	<rect id="XMLID_392_" x="66" y="284" class="st0" width="10.8" height="10.8"/>
	<rect id="XMLID_391_" x="66" y="272" class="st0" width="10.8" height="10.8"/>
	<rect id="XMLID_390_" x="66" y="259.9" class="st0" width="10.8" height="10.8"/>
	<rect id="XMLID_389_" x="66" y="247.9" class="st0" width="10.8" height="10.8"/>
	<rect id="XMLID_388_" x="66" y="235.8" class="st0" width="10.8" height="10.8"/>
	<rect id="XMLID_387_" x="66" y="223.8" class="st0" width="10.8" height="10.8"/>
	<rect id="XMLID_386_" x="66" y="211.7" class="st0" width="10.8" height="10.8"/>
	<rect id="XMLID_385_" x="66" y="199.7" class="st0" width="10.8" height="10.8"/>
	<rect id="XMLID_384_" x="66" y="187.6" class="st0" width="10.8" height="10.8"/>
	<rect id="XMLID_383_" x="66" y="175.6" class="st0" width="10.8" height="10.8"/>
	<rect id="XMLID_382_" x="66" y="163.5" class="st0" width="10.8" height="10.8"/>
	<rect id="XMLID_381_" x="66" y="151.5" class="st0" width="10.8" height="10.8"/>
	<rect id="XMLID_380_" x="66" y="139.4" class="st0" width="10.8" height="10.8"/>
	<rect id="XMLID_379_" x="66" y="127.4" class="st0" width="10.8" height="10.8"/>
	<rect id="XMLID_378_" x="66" y="115.3" class="st0" width="10.8" height="10.8"/>
	<rect id="XMLID_377_" x="66" y="103.3" class="st0" width="10.8" height="10.8"/>
	<rect id="XMLID_376_" x="66" y="91.2" class="st0" width="10.8" height="10.8"/>
	<rect id="XMLID_375_" x="66" y="79.2" class="st0" width="10.8" height="10.8"/>
	<rect id="XMLID_374_" x="66.1" y="67.2" class="st0" width="10.6" height="10.6"/>
	<rect id="XMLID_373_" x="69.9" y="59" class="st0" width="3" height="3"/>
	<rect id="XMLID_372_" x="82.6" y="324.7" class="st0" width="1.7" height="1.7"/>
	<rect id="XMLID_371_" x="78.3" y="308.3" class="st0" width="10.4" height="10.4"/>
	<rect id="XMLID_370_" x="78.1" y="296" class="st0" width="10.8" height="10.8"/>
	<rect id="XMLID_369_" x="78.1" y="284" class="st0" width="10.8" height="10.8"/>
	<rect id="XMLID_368_" x="78.1" y="272" class="st0" width="10.8" height="10.8"/>
	<rect id="XMLID_367_" x="78.1" y="259.9" class="st0" width="10.8" height="10.8"/>
	<rect id="XMLID_366_" x="78.1" y="247.9" class="st0" width="10.8" height="10.8"/>
	<rect id="XMLID_365_" x="78.1" y="235.8" class="st0" width="10.8" height="10.8"/>
	<rect id="XMLID_364_" x="78.8" y="224.5" class="st0" width="9.4" height="9.4"/>
	<rect id="XMLID_363_" x="80.7" y="214.3" class="st0" width="5.6" height="5.6"/>
	<rect id="XMLID_362_" x="81.9" y="203.6" class="st0" width="3.1" height="3.1"/>
	<rect id="XMLID_361_" x="82.6" y="192.1" class="st0" width="1.8" height="1.8"/>
	<rect id="XMLID_360_" x="82.6" y="180.1" class="st0" width="1.8" height="1.8"/>
	<rect id="XMLID_359_" x="82" y="167.4" class="st0" width="3" height="3"/>
	<rect id="XMLID_358_" x="80.7" y="154.1" class="st0" width="5.6" height="5.6"/>
	<rect id="XMLID_357_" x="78.8" y="140.2" class="st0" width="9.4" height="9.4"/>
	<rect id="XMLID_356_" x="78.1" y="127.4" class="st0" width="10.8" height="10.8"/>
	<rect id="XMLID_355_" x="78.1" y="115.3" class="st0" width="10.8" height="10.8"/>
	<rect id="XMLID_354_" x="78.1" y="103.3" class="st0" width="10.8" height="10.8"/>
	<rect id="XMLID_353_" x="78.1" y="91.2" class="st0" width="10.8" height="10.8"/>
	<rect id="XMLID_352_" x="78.1" y="79.2" class="st0" width="10.8" height="10.8"/>
	<rect id="XMLID_351_" x="78.1" y="67.1" class="st0" width="10.8" height="10.8"/>
	<rect id="XMLID_350_" x="78.3" y="55.4" class="st0" width="10.3" height="10.3"/>
	<rect id="XMLID_349_" x="82.7" y="47.6" class="st0" width="1.6" height="1.6"/>
	<rect id="XMLID_348_" x="95.5" y="337.6" class="st0" width="0.1" height="0.1"/>
	<rect id="XMLID_347_" x="91.2" y="321.3" class="st0" width="8.6" height="8.6"/>
	<rect id="XMLID_346_" x="90.1" y="308.1" class="st0" width="10.8" height="10.8"/>
	<rect id="XMLID_345_" x="90.1" y="296" class="st0" width="10.8" height="10.8"/>
	<rect id="XMLID_344_" x="90.1" y="284" class="st0" width="10.8" height="10.8"/>
	<rect id="XMLID_343_" x="90.1" y="272" class="st0" width="10.8" height="10.8"/>
	<rect id="XMLID_342_" x="90.1" y="259.9" class="st0" width="10.8" height="10.8"/>
	<rect id="XMLID_341_" x="90.5" y="248.2" class="st0" width="10.1" height="10.1"/>
	<rect id="XMLID_340_" x="93.4" y="239.1" class="st0" width="4.2" height="4.2"/>
	<rect id="XMLID_339_" x="95.5" y="229.1" class="st0" width="0.1" height="0.1"/>
	<rect id="XMLID_338_" x="95.5" y="144.8" class="st0" width="0.1" height="0.1"/>
	<rect id="XMLID_337_" x="93.5" y="130.7" class="st0" width="4.1" height="4.1"/>
	<rect id="XMLID_336_" x="90.5" y="115.7" class="st0" width="10.1" height="10.1"/>
	<rect id="XMLID_335_" x="90.1" y="103.3" class="st0" width="10.8" height="10.8"/>
	<rect id="XMLID_334_" x="90.1" y="91.2" class="st0" width="10.8" height="10.8"/>
	<rect id="XMLID_333_" x="90.1" y="79.2" class="st0" width="10.8" height="10.8"/>
	<rect id="XMLID_332_" x="90.1" y="67.1" class="st0" width="10.8" height="10.8"/>
	<rect id="XMLID_331_" x="90.1" y="55.1" class="st0" width="10.8" height="10.8"/>
	<rect id="XMLID_330_" x="91.2" y="44.2" class="st0" width="8.6" height="8.6"/>
	<rect id="XMLID_329_" x="95.5" y="36.4" class="st0" width="0.1" height="0.1"/>
	<rect id="XMLID_328_" x="105.4" y="335.5" class="st0" width="4.3" height="4.3"/>
	<rect id="XMLID_327_" x="102.1" y="320.1" class="st0" width="10.8" height="10.8"/>
	<rect id="XMLID_326_" x="102.1" y="308.1" class="st0" width="10.8" height="10.8"/>
	<rect id="XMLID_325_" x="102.1" y="296" class="st0" width="10.8" height="10.8"/>
	<rect id="XMLID_324_" x="102.1" y="284" class="st0" width="10.8" height="10.8"/>
	<rect id="XMLID_323_" x="102.1" y="272" class="st0" width="10.8" height="10.8"/>
	<rect id="XMLID_322_" x="102.9" y="260.6" class="st0" width="9.4" height="9.4"/>
	<rect id="XMLID_321_" x="106.8" y="252.5" class="st0" width="1.5" height="1.5"/>
	<rect id="XMLID_320_" x="106.8" y="120" class="st0" width="1.5" height="1.5"/>
	<rect id="XMLID_319_" x="102.9" y="104" class="st0" width="9.4" height="9.4"/>
	<rect id="XMLID_318_" x="102.1" y="91.2" class="st0" width="10.8" height="10.8"/>
	<rect id="XMLID_317_" x="102.1" y="79.2" class="st0" width="10.8" height="10.8"/>
	<rect id="XMLID_316_" x="102.1" y="67.1" class="st0" width="10.8" height="10.8"/>
	<rect id="XMLID_315_" x="102.1" y="55.1" class="st0" width="10.8" height="10.8"/>
	<rect id="XMLID_314_" x="102.1" y="43" class="st0" width="10.8" height="10.8"/>
	<rect id="XMLID_313_" x="105.5" y="34.3" class="st0" width="4.2" height="4.2"/>
	<rect id="XMLID_312_" x="119.6" y="349.6" class="st0" width="0.1" height="0.1"/>
	<rect id="XMLID_311_" x="114.9" y="332.9" class="st0" width="9.4" height="9.4"/>
	<rect id="XMLID_310_" x="114.2" y="320.1" class="st0" width="10.8" height="10.8"/>
	<rect id="XMLID_309_" x="114.2" y="308.1" class="st0" width="10.8" height="10.8"/>
	<rect id="XMLID_308_" x="114.2" y="296" class="st0" width="10.8" height="10.8"/>
	<rect id="XMLID_307_" x="114.2" y="284" class="st0" width="10.8" height="10.8"/>
	<rect id="XMLID_306_" x="114.5" y="272.3" class="st0" width="10.2" height="10.2"/>
	<rect id="XMLID_305_" x="118.8" y="264.5" class="st0" width="1.6" height="1.6"/>
	<rect id="XMLID_304_" x="118.9" y="108" class="st0" width="1.4" height="1.4"/>
	<rect id="XMLID_303_" x="114.5" y="91.6" class="st0" width="10.1" height="10.1"/>
	<rect id="XMLID_302_" x="114.2" y="79.2" class="st0" width="10.8" height="10.8"/>
	<rect id="XMLID_301_" x="114.2" y="67.1" class="st0" width="10.8" height="10.8"/>
	<rect id="XMLID_300_" x="114.2" y="55.1" class="st0" width="10.8" height="10.8"/>
	<rect id="XMLID_299_" x="114.2" y="43" class="st0" width="10.8" height="10.8"/>
	<rect id="XMLID_298_" x="114.9" y="31.7" class="st0" width="9.4" height="9.4"/>
	<rect id="XMLID_297_" x="119.6" y="24.3" class="st0" width="0" height="0"/>
	<rect id="XMLID_296_" x="130.3" y="348.3" class="st0" width="2.8" height="2.8"/>
	<rect id="XMLID_295_" x="126.2" y="332.2" class="st0" width="10.8" height="10.8"/>
	<rect id="XMLID_294_" x="126.2" y="320.1" class="st0" width="10.8" height="10.8"/>
	<rect id="XMLID_293_" x="126.2" y="308.1" class="st0" width="10.8" height="10.8"/>
	<rect id="XMLID_292_" x="126.2" y="296" class="st0" width="10.8" height="10.8"/>
	<rect id="XMLID_291_" x="126.2" y="284" class="st0" width="10.8" height="10.8"/>
	<rect id="XMLID_290_" x="129.6" y="275.3" class="st0" width="4.2" height="4.2"/>
	<rect id="XMLID_289_" x="129.6" y="94.6" class="st0" width="4.1" height="4.1"/>
	<rect id="XMLID_288_" x="126.2" y="79.2" class="st0" width="10.8" height="10.8"/>
	<rect id="XMLID_287_" x="126.2" y="67.1" class="st0" width="10.8" height="10.8"/>
	<rect id="XMLID_286_" x="126.2" y="55.1" class="st0" width="10.8" height="10.8"/>
	<rect id="XMLID_285_" x="126.2" y="43" class="st0" width="10.8" height="10.8"/>
	<rect id="XMLID_284_" x="126.2" y="31" class="st0" width="10.8" height="10.8"/>
	<rect id="XMLID_283_" x="130.3" y="23" class="st0" width="2.7" height="2.7"/>
	<rect id="XMLID_282_" x="140.7" y="346.7" class="st0" width="5.9" height="5.9"/>
	<rect id="XMLID_281_" x="138.3" y="332.2" class="st0" width="10.8" height="10.8"/>
	<rect id="XMLID_280_" x="138.3" y="320.1" class="st0" width="10.8" height="10.8"/>
	<rect id="XMLID_279_" x="138.3" y="308.1" class="st0" width="10.8" height="10.8"/>
	<rect id="XMLID_278_" x="138.3" y="296" class="st0" width="10.8" height="10.8"/>
	<rect id="XMLID_277_" x="139" y="284.7" class="st0" width="9.4" height="9.4"/>
	<rect id="XMLID_276_" x="143.6" y="277.3" class="st0" width="0.1" height="0.1"/>
	<rect id="XMLID_275_" x="143.7" y="96.6" class="st0" width="0.1" height="0.1"/>
	<rect id="XMLID_274_" x="139" y="79.9" class="st0" width="9.3" height="9.3"/>
	<rect id="XMLID_273_" x="138.3" y="67.1" class="st0" width="10.8" height="10.8"/>
	<rect id="XMLID_272_" x="138.3" y="55.1" class="st0" width="10.8" height="10.8"/>
	<rect id="XMLID_271_" x="138.3" y="43" class="st0" width="10.8" height="10.8"/>
	<rect id="XMLID_270_" x="138.3" y="31" class="st0" width="10.8" height="10.8"/>
	<rect id="XMLID_269_" x="140.7" y="21.4" class="st0" width="5.9" height="5.9"/>
	<rect id="XMLID_268_" x="151.6" y="345.5" class="st0" width="8.3" height="8.3"/>
	<rect id="XMLID_267_" x="150.3" y="332.2" class="st0" width="10.8" height="10.8"/>
	<rect id="XMLID_266_" x="150.3" y="320.1" class="st0" width="10.8" height="10.8"/>
	<rect id="XMLID_265_" x="150.3" y="308.1" class="st0" width="10.8" height="10.8"/>
	<rect id="XMLID_264_" x="150.3" y="296" class="st0" width="10.8" height="10.8"/>
	<rect id="XMLID_263_" x="153" y="286.7" class="st0" width="5.5" height="5.5"/>
	<rect id="XMLID_262_" x="153" y="81.8" class="st0" width="5.5" height="5.5"/>
	<rect id="XMLID_261_" x="150.3" y="67.1" class="st0" width="10.8" height="10.8"/>
	<rect id="XMLID_260_" x="150.3" y="55.1" class="st0" width="10.8" height="10.8"/>
	<rect id="XMLID_259_" x="150.3" y="43" class="st0" width="10.8" height="10.8"/>
	<rect id="XMLID_258_" x="150.3" y="31" class="st0" width="10.8" height="10.8"/>
	<rect id="XMLID_257_" x="151.6" y="20.2" class="st0" width="8.3" height="8.3"/>
	<rect id="XMLID_256_" x="162.9" y="344.8" class="st0" width="9.8" height="9.8"/>
	<rect id="XMLID_255_" x="162.4" y="332.2" class="st0" width="10.8" height="10.8"/>
	<rect id="XMLID_254_" x="162.4" y="320.1" class="st0" width="10.8" height="10.8"/>
	<rect id="XMLID_253_" x="162.4" y="308.1" class="st0" width="10.8" height="10.8"/>
	<rect id="XMLID_252_" x="162.4" y="296" class="st0" width="10.8" height="10.8"/>
	<rect id="XMLID_251_" x="166.2" y="287.9" class="st0" width="3.1" height="3.1"/>
	<rect id="XMLID_250_" x="166.3" y="83.1" class="st0" width="2.9" height="2.9"/>
	<rect id="XMLID_249_" x="162.4" y="67.1" class="st0" width="10.8" height="10.8"/>
	<rect id="XMLID_248_" x="162.4" y="55.1" class="st0" width="10.8" height="10.8"/>
	<rect id="XMLID_247_" x="162.4" y="43" class="st0" width="10.8" height="10.8"/>
	<rect id="XMLID_246_" x="162.4" y="31" class="st0" width="10.8" height="10.8"/>
	<rect id="XMLID_245_" x="162.9" y="19.5" class="st0" width="9.8" height="9.8"/>
	<rect id="XMLID_244_" x="174.5" y="344.4" class="st0" width="10.6" height="10.6"/>
	<rect id="XMLID_243_" x="174.4" y="332.2" class="st0" width="10.8" height="10.8"/>
	<rect id="XMLID_242_" x="174.4" y="320.1" class="st0" width="10.8" height="10.8"/>
	<rect id="XMLID_241_" x="174.4" y="308.1" class="st0" width="10.8" height="10.8"/>
	<rect id="XMLID_240_" x="174.4" y="296" class="st0" width="10.8" height="10.8"/>
	<rect id="XMLID_239_" x="178.9" y="288.5" class="st0" width="1.8" height="1.8"/>
	<rect id="XMLID_238_" x="179" y="83.8" class="st0" width="1.7" height="1.7"/>
	<rect id="XMLID_237_" x="174.4" y="67.1" class="st0" width="10.8" height="10.8"/>
	<rect id="XMLID_236_" x="174.4" y="55.1" class="st0" width="10.8" height="10.8"/>
	<rect id="XMLID_235_" x="174.4" y="43" class="st0" width="10.8" height="10.8"/>
	<rect id="XMLID_234_" x="174.4" y="31" class="st0" width="10.8" height="10.8"/>
	<rect id="XMLID_233_" x="174.6" y="19.1" class="st0" width="10.5" height="10.5"/>
	<rect id="XMLID_232_" x="186.6" y="344.4" class="st0" width="10.6" height="10.6"/>
	<rect id="XMLID_231_" x="186.4" y="332.2" class="st0" width="10.8" height="10.8"/>
	<rect id="XMLID_230_" x="186.4" y="320.1" class="st0" width="10.8" height="10.8"/>
	<rect id="XMLID_229_" x="186.4" y="308.1" class="st0" width="10.8" height="10.8"/>
	<rect id="XMLID_228_" x="186.4" y="296" class="st0" width="10.8" height="10.8"/>
	<rect id="XMLID_227_" x="191" y="288.5" class="st0" width="1.8" height="1.8"/>
	<rect id="XMLID_226_" x="191.1" y="83.8" class="st0" width="1.6" height="1.6"/>
	<rect id="XMLID_225_" x="186.4" y="67.1" class="st0" width="10.8" height="10.8"/>
	<rect id="XMLID_224_" x="186.4" y="55.1" class="st0" width="10.8" height="10.8"/>
	<rect id="XMLID_223_" x="186.4" y="43" class="st0" width="10.8" height="10.8"/>
	<rect id="XMLID_222_" x="186.4" y="31" class="st0" width="10.8" height="10.8"/>
	<rect id="XMLID_221_" x="186.6" y="19.1" class="st0" width="10.6" height="10.6"/>
	<rect id="XMLID_220_" x="199" y="344.8" class="st0" width="9.8" height="9.8"/>
	<rect id="XMLID_219_" x="198.5" y="332.2" class="st0" width="10.8" height="10.8"/>
	<rect id="XMLID_218_" x="198.5" y="320.1" class="st0" width="10.8" height="10.8"/>
	<rect id="XMLID_217_" x="198.5" y="308.1" class="st0" width="10.8" height="10.8"/>
	<rect id="XMLID_216_" x="198.5" y="296" class="st0" width="10.8" height="10.8"/>
	<rect id="XMLID_215_" x="202.4" y="287.9" class="st0" width="3" height="3"/>
	<rect id="XMLID_214_" x="202.5" y="83.1" class="st0" width="2.9" height="2.9"/>
	<rect id="XMLID_213_" x="198.5" y="67.1" class="st0" width="10.8" height="10.8"/>
	<rect id="XMLID_212_" x="198.5" y="55.1" class="st0" width="10.8" height="10.8"/>
	<rect id="XMLID_211_" x="198.5" y="43" class="st0" width="10.8" height="10.8"/>
	<rect id="XMLID_210_" x="198.5" y="31" class="st0" width="10.8" height="10.8"/>
	<rect id="XMLID_209_" x="199" y="19.4" class="st0" width="9.8" height="9.8"/>
	<rect id="XMLID_208_" x="211.8" y="345.5" class="st0" width="8.3" height="8.3"/>
	<rect id="XMLID_207_" x="210.5" y="332.2" class="st0" width="10.8" height="10.8"/>
	<rect id="XMLID_206_" x="210.5" y="320.1" class="st0" width="10.8" height="10.8"/>
	<rect id="XMLID_205_" x="210.5" y="308.1" class="st0" width="10.8" height="10.8"/>
	<rect id="XMLID_204_" x="210.5" y="296" class="st0" width="10.8" height="10.8"/>
	<rect id="XMLID_203_" x="213.3" y="286.7" class="st0" width="5.4" height="5.4"/>
	<rect id="XMLID_202_" x="213.3" y="81.9" class="st0" width="5.4" height="5.4"/>
	<rect id="XMLID_201_" x="210.5" y="67.1" class="st0" width="10.8" height="10.8"/>
	<rect id="XMLID_200_" x="210.5" y="55.1" class="st0" width="10.8" height="10.8"/>
	<rect id="XMLID_199_" x="210.5" y="43" class="st0" width="10.8" height="10.8"/>
	<rect id="XMLID_198_" x="210.5" y="31" class="st0" width="10.8" height="10.8"/>
	<rect id="XMLID_197_" x="211.8" y="20.2" class="st0" width="8.3" height="8.3"/>
	<rect id="XMLID_196_" x="225" y="346.7" class="st0" width="5.9" height="5.9"/>
	<rect id="XMLID_195_" x="222.6" y="332.2" class="st0" width="10.8" height="10.8"/>
	<rect id="XMLID_194_" x="222.6" y="320.1" class="st0" width="10.8" height="10.8"/>
	<rect id="XMLID_193_" x="222.6" y="308.1" class="st0" width="10.8" height="10.8"/>
	<rect id="XMLID_192_" x="222.6" y="296" class="st0" width="10.8" height="10.8"/>
	<rect id="XMLID_191_" x="223.4" y="284.8" class="st0" width="9.2" height="9.2"/>
	<rect id="XMLID_190_" x="228" y="277.3" class="st0" width="0.1" height="0.1"/>
	<rect id="XMLID_189_" x="228" y="96.6" class="st0" width="0.1" height="0.1"/>
	<rect id="XMLID_188_" x="223.4" y="80" class="st0" width="9.2" height="9.2"/>
	<rect id="XMLID_187_" x="222.6" y="67.1" class="st0" width="10.8" height="10.8"/>
	<rect id="XMLID_186_" x="222.6" y="55.1" class="st0" width="10.8" height="10.8"/>
	<rect id="XMLID_185_" x="222.6" y="43" class="st0" width="10.8" height="10.8"/>
	<rect id="XMLID_184_" x="222.6" y="31" class="st0" width="10.8" height="10.8"/>
	<rect id="XMLID_183_" x="225" y="21.4" class="st0" width="5.9" height="5.9"/>
	<rect id="XMLID_182_" x="238.7" y="348.3" class="st0" width="2.8" height="2.8"/>
	<rect id="XMLID_181_" x="234.6" y="332.2" class="st0" width="10.8" height="10.8"/>
	<rect id="XMLID_180_" x="234.6" y="320.1" class="st0" width="10.8" height="10.8"/>
	<rect id="XMLID_179_" x="234.6" y="308.1" class="st0" width="10.8" height="10.8"/>
	<rect id="XMLID_178_" x="234.6" y="296" class="st0" width="10.8" height="10.8"/>
	<rect id="XMLID_177_" x="234.6" y="284" class="st0" width="10.8" height="10.8"/>
	<rect id="XMLID_176_" x="238" y="275.4" class="st0" width="4" height="4"/>
	<rect id="XMLID_175_" x="238.1" y="94.7" class="st0" width="4" height="4"/>
	<rect id="XMLID_174_" x="234.6" y="79.2" class="st0" width="10.8" height="10.8"/>
	<rect id="XMLID_173_" x="234.6" y="67.1" class="st0" width="10.8" height="10.8"/>
	<rect id="XMLID_172_" x="234.6" y="55.1" class="st0" width="10.8" height="10.8"/>
	<rect id="XMLID_171_" x="234.6" y="43" class="st0" width="10.8" height="10.8"/>
	<rect id="XMLID_170_" x="234.6" y="31" class="st0" width="10.8" height="10.8"/>
	<rect id="XMLID_169_" x="238.7" y="23" class="st0" width="2.7" height="2.7"/>
	<rect id="XMLID_168_" x="252" y="349.6" class="st0" width="0.1" height="0.1"/>
	<rect id="XMLID_167_" x="247.4" y="332.9" class="st0" width="9.4" height="9.4"/>
	<rect id="XMLID_166_" x="246.7" y="320.1" class="st0" width="10.8" height="10.8"/>
	<rect id="XMLID_165_" x="246.7" y="308.1" class="st0" width="10.8" height="10.8"/>
	<rect id="XMLID_164_" x="246.7" y="296" class="st0" width="10.8" height="10.8"/>
	<rect id="XMLID_163_" x="246.7" y="284" class="st0" width="10.8" height="10.8"/>
	<rect id="XMLID_162_" x="247" y="272.3" class="st0" width="10.1" height="10.1"/>
	<rect id="XMLID_161_" x="251.4" y="264.6" class="st0" width="1.4" height="1.4"/>
	<rect id="XMLID_160_" x="251.4" y="108" class="st0" width="1.4" height="1.4"/>
	<rect id="XMLID_159_" x="247.1" y="91.6" class="st0" width="10.1" height="10.1"/>
	<rect id="XMLID_158_" x="246.7" y="79.2" class="st0" width="10.8" height="10.8"/>
	<rect id="XMLID_157_" x="246.7" y="67.1" class="st0" width="10.8" height="10.8"/>
	<rect id="XMLID_156_" x="246.7" y="55.1" class="st0" width="10.8" height="10.8"/>
	<rect id="XMLID_155_" x="246.7" y="43" class="st0" width="10.8" height="10.8"/>
	<rect id="XMLID_154_" x="247.4" y="31.7" class="st0" width="9.3" height="9.3"/>
	<rect id="XMLID_153_" x="252.1" y="24.3" class="st0" width="0" height="0"/>
	<rect id="XMLID_152_" x="262" y="335.5" class="st0" width="4.3" height="4.3"/>
	<rect id="XMLID_151_" x="258.7" y="320.1" class="st0" width="10.8" height="10.8"/>
	<rect id="XMLID_150_" x="258.7" y="308.1" class="st0" width="10.8" height="10.8"/>
	<rect id="XMLID_149_" x="258.7" y="296" class="st0" width="10.8" height="10.8"/>
	<rect id="XMLID_148_" x="258.7" y="284" class="st0" width="10.8" height="10.8"/>
	<rect id="XMLID_147_" x="258.7" y="272" class="st0" width="10.8" height="10.8"/>
	<rect id="XMLID_146_" x="259.5" y="260.7" class="st0" width="9.3" height="9.3"/>
	<rect id="XMLID_145_" x="263.4" y="252.6" class="st0" width="1.4" height="1.4"/>
	<rect id="XMLID_144_" x="263.4" y="120" class="st0" width="1.4" height="1.4"/>
	<rect id="XMLID_143_" x="259.5" y="104" class="st0" width="9.3" height="9.3"/>
	<rect id="XMLID_142_" x="258.7" y="91.2" class="st0" width="10.8" height="10.8"/>
	<rect id="XMLID_141_" x="258.7" y="79.2" class="st0" width="10.8" height="10.8"/>
	<rect id="XMLID_140_" x="258.7" y="67.1" class="st0" width="10.8" height="10.8"/>
	<rect id="XMLID_139_" x="258.7" y="55.1" class="st0" width="10.8" height="10.8"/>
	<rect id="XMLID_138_" x="258.7" y="43" class="st0" width="10.8" height="10.8"/>
	<rect id="XMLID_137_" x="262" y="34.3" class="st0" width="4.3" height="4.3"/>
	<rect id="XMLID_136_" x="276.1" y="337.6" class="st0" width="0.1" height="0.1"/>
	<rect id="XMLID_135_" x="271.9" y="321.3" class="st0" width="8.6" height="8.6"/>
	<rect id="XMLID_134_" x="270.8" y="308.1" class="st0" width="10.8" height="10.8"/>
	<rect id="XMLID_133_" x="270.8" y="296" class="st0" width="10.8" height="10.8"/>
	<rect id="XMLID_132_" x="270.8" y="284" class="st0" width="10.8" height="10.8"/>
	<rect id="XMLID_131_" x="270.8" y="272" class="st0" width="10.8" height="10.8"/>
	<rect id="XMLID_130_" x="270.8" y="259.9" class="st0" width="10.8" height="10.8"/>
	<rect id="XMLID_129_" x="271.1" y="248.2" class="st0" width="10.1" height="10.1"/>
	<rect id="XMLID_128_" x="274.2" y="239.3" class="st0" width="4" height="4"/>
	<rect id="XMLID_127_" x="276.1" y="229.1" class="st0" width="0.1" height="0.1"/>
	<rect id="XMLID_126_" x="276.1" y="144.8" class="st0" width="0.1" height="0.1"/>
	<rect id="XMLID_124_" x="274.2" y="130.8" class="st0" width="4" height="4"/>
	<rect id="XMLID_123_" x="271.1" y="115.7" class="st0" width="10.1" height="10.1"/>
	<rect id="XMLID_122_" x="270.8" y="103.3" class="st0" width="10.8" height="10.8"/>
	<rect id="XMLID_121_" x="270.8" y="91.2" class="st0" width="10.8" height="10.8"/>
	<rect id="XMLID_120_" x="270.8" y="79.2" class="st0" width="10.8" height="10.8"/>
	<rect id="XMLID_119_" x="270.8" y="67.1" class="st0" width="10.8" height="10.8"/>
	<rect id="XMLID_118_" x="270.8" y="55.1" class="st0" width="10.8" height="10.8"/>
	<rect id="XMLID_117_" x="271.8" y="44.1" class="st0" width="8.7" height="8.7"/>
	<rect id="XMLID_116_" x="276.1" y="36.3" class="st0" width="0.1" height="0.1"/>
	<rect id="XMLID_115_" x="287.4" y="324.7" class="st0" width="1.7" height="1.7"/>
	<rect id="XMLID_114_" x="283.1" y="308.4" class="st0" width="10.3" height="10.3"/>
	<rect id="XMLID_113_" x="282.8" y="296" class="st0" width="10.8" height="10.8"/>
	<rect id="XMLID_112_" x="282.8" y="284" class="st0" width="10.8" height="10.8"/>
	<rect id="XMLID_111_" x="282.8" y="272" class="st0" width="10.8" height="10.8"/>
	<rect id="XMLID_110_" x="282.8" y="259.9" class="st0" width="10.8" height="10.8"/>
	<rect id="XMLID_109_" x="282.8" y="247.9" class="st0" width="10.8" height="10.8"/>
	<rect id="XMLID_108_" x="282.8" y="235.8" class="st0" width="10.8" height="10.8"/>
	<rect id="XMLID_107_" x="283.6" y="224.6" class="st0" width="9.2" height="9.2"/>
	<rect id="XMLID_106_" x="285.5" y="214.4" class="st0" width="5.4" height="5.4"/>
	<rect id="XMLID_105_" x="286.8" y="203.6" class="st0" width="2.9" height="2.9"/>
	<rect id="XMLID_104_" x="287.4" y="192.2" class="st0" width="1.7" height="1.7"/>
	<rect id="XMLID_103_" x="287.4" y="180.1" class="st0" width="1.7" height="1.7"/>
	<rect id="XMLID_102_" x="286.8" y="167.5" class="st0" width="2.9" height="2.9"/>
	<rect id="XMLID_101_" x="285.5" y="154.2" class="st0" width="5.4" height="5.4"/>
	<rect id="XMLID_100_" x="283.6" y="140.2" class="st0" width="9.3" height="9.3"/>
	<rect id="XMLID_99_" x="282.8" y="127.4" class="st0" width="10.8" height="10.8"/>
	<rect id="XMLID_98_" x="282.8" y="115.3" class="st0" width="10.8" height="10.8"/>
	<rect id="XMLID_97_" x="282.8" y="103.3" class="st0" width="10.8" height="10.8"/>
	<rect id="XMLID_96_" x="282.8" y="91.2" class="st0" width="10.8" height="10.8"/>
	<rect id="XMLID_95_" x="282.8" y="79.2" class="st0" width="10.8" height="10.8"/>
	<rect id="XMLID_94_" x="282.8" y="67.1" class="st0" width="10.8" height="10.8"/>
	<rect id="XMLID_93_" x="283.1" y="55.3" class="st0" width="10.3" height="10.3"/>
	<rect id="XMLID_92_" x="287.4" y="47.6" class="st0" width="1.7" height="1.7"/>
	<rect id="XMLID_91_" x="298.7" y="312" class="st0" width="3.1" height="3.1"/>
	<rect id="XMLID_90_" x="294.9" y="296.2" class="st0" width="10.6" height="10.6"/>
	<rect id="XMLID_89_" x="294.8" y="284" class="st0" width="10.8" height="10.8"/>
	<rect id="XMLID_88_" x="294.8" y="272" class="st0" width="10.8" height="10.8"/>
	<rect id="XMLID_87_" x="294.8" y="259.9" class="st0" width="10.8" height="10.8"/>
	<rect id="XMLID_86_" x="294.8" y="247.9" class="st0" width="10.8" height="10.8"/>
	<rect id="XMLID_85_" x="294.8" y="235.8" class="st0" width="10.8" height="10.8"/>
	<rect id="XMLID_84_" x="294.8" y="223.8" class="st0" width="10.8" height="10.8"/>
	<rect id="XMLID_83_" x="294.8" y="211.7" class="st0" width="10.8" height="10.8"/>
	<rect id="XMLID_82_" x="294.8" y="199.7" class="st0" width="10.8" height="10.8"/>
	<rect id="XMLID_81_" x="294.8" y="187.6" class="st0" width="10.8" height="10.8"/>
	<rect id="XMLID_80_" x="294.8" y="175.6" class="st0" width="10.8" height="10.8"/>
	<rect id="XMLID_79_" x="294.8" y="163.5" class="st0" width="10.8" height="10.8"/>
	<rect id="XMLID_78_" x="294.8" y="151.5" class="st0" width="10.8" height="10.8"/>
	<rect id="XMLID_77_" x="294.8" y="139.4" class="st0" width="10.8" height="10.8"/>
	<rect id="XMLID_76_" x="294.8" y="127.4" class="st0" width="10.8" height="10.8"/>
	<rect id="XMLID_75_" x="294.8" y="115.3" class="st0" width="10.8" height="10.8"/>
	<rect id="XMLID_74_" x="294.8" y="103.3" class="st0" width="10.8" height="10.8"/>
	<rect id="XMLID_73_" x="294.8" y="91.2" class="st0" width="10.8" height="10.8"/>
	<rect id="XMLID_72_" x="294.8" y="79.2" class="st0" width="10.8" height="10.8"/>
	<rect id="XMLID_71_" x="295" y="67.3" class="st0" width="10.6" height="10.6"/>
	<rect id="XMLID_70_" x="298.7" y="59" class="st0" width="3.1" height="3.1"/>
	<rect id="XMLID_69_" x="310.8" y="299.9" class="st0" width="3.1" height="3.1"/>
	<rect id="XMLID_68_" x="307.1" y="284.3" class="st0" width="10.3" height="10.3"/>
	<rect id="XMLID_67_" x="306.9" y="272" class="st0" width="10.8" height="10.8"/>
	<rect id="XMLID_66_" x="306.9" y="259.9" class="st0" width="10.8" height="10.8"/>
	<rect id="XMLID_65_" x="306.9" y="247.9" class="st0" width="10.8" height="10.8"/>
	<rect id="XMLID_64_" x="306.9" y="235.8" class="st0" width="10.8" height="10.8"/>
	<rect id="XMLID_63_" x="306.9" y="223.8" class="st0" width="10.8" height="10.8"/>
	<rect id="XMLID_62_" x="306.9" y="211.7" class="st0" width="10.8" height="10.8"/>
	<rect id="XMLID_61_" x="306.9" y="199.7" class="st0" width="10.8" height="10.8"/>
	<rect id="XMLID_60_" x="306.9" y="187.6" class="st0" width="10.8" height="10.8"/>
	<rect id="XMLID_59_" x="306.9" y="175.6" class="st0" width="10.8" height="10.8"/>
	<rect id="XMLID_58_" x="306.9" y="163.5" class="st0" width="10.8" height="10.8"/>
	<rect id="XMLID_57_" x="306.9" y="151.5" class="st0" width="10.8" height="10.8"/>
	<rect id="XMLID_56_" x="306.9" y="139.4" class="st0" width="10.8" height="10.8"/>
	<rect id="XMLID_55_" x="306.9" y="127.4" class="st0" width="10.8" height="10.8"/>
	<rect id="XMLID_54_" x="306.9" y="115.3" class="st0" width="10.8" height="10.8"/>
	<rect id="XMLID_53_" x="306.9" y="103.3" class="st0" width="10.8" height="10.8"/>
	<rect id="XMLID_52_" x="306.9" y="91.2" class="st0" width="10.8" height="10.8"/>
	<rect id="XMLID_51_" x="307.1" y="79.4" class="st0" width="10.3" height="10.3"/>
	<rect id="XMLID_50_" x="310.8" y="71" class="st0" width="3.1" height="3.1"/>
	<rect id="XMLID_49_" x="323.5" y="288.6" class="st0" width="1.7" height="1.7"/>
	<rect id="XMLID_48_" x="320" y="273.1" class="st0" width="8.6" height="8.6"/>
	<rect id="XMLID_47_" x="318.9" y="259.9" class="st0" width="10.8" height="10.8"/>
	<rect id="XMLID_46_" x="318.9" y="247.9" class="st0" width="10.8" height="10.8"/>
	<rect id="XMLID_45_" x="318.9" y="235.8" class="st0" width="10.8" height="10.8"/>
	<rect id="XMLID_44_" x="318.9" y="223.8" class="st0" width="10.8" height="10.8"/>
	<rect id="XMLID_43_" x="318.9" y="211.7" class="st0" width="10.8" height="10.8"/>
	<rect id="XMLID_42_" x="318.9" y="199.7" class="st0" width="10.8" height="10.8"/>
	<rect id="XMLID_41_" x="318.9" y="187.6" class="st0" width="10.8" height="10.8"/>
	<rect id="XMLID_40_" x="318.9" y="175.6" class="st0" width="10.8" height="10.8"/>
	<rect id="XMLID_39_" x="318.9" y="163.5" class="st0" width="10.8" height="10.8"/>
	<rect id="XMLID_38_" x="318.9" y="151.5" class="st0" width="10.8" height="10.8"/>
	<rect id="XMLID_37_" x="318.9" y="139.4" class="st0" width="10.8" height="10.8"/>
	<rect id="XMLID_36_" x="318.9" y="127.4" class="st0" width="10.8" height="10.8"/>
	<rect id="XMLID_35_" x="318.9" y="115.3" class="st0" width="10.8" height="10.8"/>
	<rect id="XMLID_34_" x="318.9" y="103.3" class="st0" width="10.8" height="10.8"/>
	<rect id="XMLID_33_" x="320" y="92.3" class="st0" width="8.7" height="8.7"/>
	<rect id="XMLID_32_" x="323.5" y="83.7" class="st0" width="1.7" height="1.7"/>
	<rect id="XMLID_31_" x="336.3" y="277.3" class="st0" width="0.1" height="0.1"/>
	<rect id="XMLID_30_" x="334.3" y="263.2" class="st0" width="4.2" height="4.2"/>
	<rect id="XMLID_29_" x="331.7" y="248.6" class="st0" width="9.3" height="9.3"/>
	<rect id="XMLID_28_" x="331" y="235.8" class="st0" width="10.8" height="10.8"/>
	<rect id="XMLID_27_" x="331" y="223.8" class="st0" width="10.8" height="10.8"/>
	<rect id="XMLID_26_" x="331" y="211.7" class="st0" width="10.8" height="10.8"/>
	<rect id="XMLID_25_" x="331" y="199.7" class="st0" width="10.8" height="10.8"/>
	<rect id="XMLID_24_" x="331" y="187.6" class="st0" width="10.8" height="10.8"/>
	<rect id="XMLID_23_" x="331" y="175.6" class="st0" width="10.8" height="10.8"/>
	<rect id="XMLID_22_" x="331" y="163.5" class="st0" width="10.8" height="10.8"/>
	<rect id="XMLID_21_" x="331" y="151.5" class="st0" width="10.8" height="10.8"/>
	<rect id="XMLID_20_" x="331" y="139.4" class="st0" width="10.8" height="10.8"/>
	<rect id="XMLID_19_" x="331" y="127.4" class="st0" width="10.8" height="10.8"/>
	<rect id="XMLID_18_" x="331.8" y="116.1" class="st0" width="9.3" height="9.3"/>
	<rect id="XMLID_17_" x="334.3" y="106.6" class="st0" width="4.2" height="4.2"/>
	<rect id="XMLID_16_" x="336.3" y="96.6" class="st0" width="0.1" height="0.1"/>
	<rect id="XMLID_15_" x="348.4" y="253.2" class="st0" width="0.1" height="0.1"/>
	<rect id="XMLID_14_" x="347.1" y="239.9" class="st0" width="2.7" height="2.7"/>
	<rect id="XMLID_13_" x="345.5" y="226.2" class="st0" width="5.9" height="5.9"/>
	<rect id="XMLID_12_" x="344.3" y="213" class="st0" width="8.3" height="8.3"/>
	<rect id="XMLID_11_" x="343.5" y="200.1" class="st0" width="9.9" height="9.9"/>
	<rect id="XMLID_10_" x="343.1" y="187.7" class="st0" width="10.6" height="10.6"/>
	<rect id="XMLID_9_" x="343.1" y="175.7" class="st0" width="10.6" height="10.6"/>
	<rect id="XMLID_8_" x="343.5" y="164" class="st0" width="9.8" height="9.8"/>
	<rect id="XMLID_7_" x="344.3" y="152.8" class="st0" width="8.2" height="8.2"/>
	<rect id="XMLID_6_" x="345.5" y="141.9" class="st0" width="5.9" height="5.9"/>
	<rect id="XMLID_5_" x="347.1" y="131.5" class="st0" width="2.6" height="2.6"/>
	<rect id="XMLID_4_" x="348.4" y="120.7" class="st0" width="0" height="0"/>
</g>
</svg>
