<?xml version="1.0" encoding="utf-8"?>
<!-- Generator: Adobe Illustrator 24.0.2, SVG Export Plug-In . SVG Version: 6.00 Build 0)  -->
<svg version="1.1" xmlns="http://www.w3.org/2000/svg" xmlns:xlink="http://www.w3.org/1999/xlink" x="0px" y="0px"
	 viewBox="0 0 1496 1496" style="enable-background:new 0 0 1496 1496;" xml:space="preserve">
<style type="text/css">
	.st0{fill:#FFFFFF;}
	.st1{fill-rule:evenodd;clip-rule:evenodd;fill:#FFFEFD;}
	.st2{fill:#A9C7C9;}
	.st3{fill-rule:evenodd;clip-rule:evenodd;fill:#A9C7C9;}
</style>
<g id="Layer_2">
	<path class="st0" d="M747.4,41C358.5,41,43.2,356.2,43.2,745.1s315.3,704.1,704.1,704.1s704.1-315.3,704.1-704.1
		S1136.2,41,747.4,41z M747.4,1353.5c-336,0-608.3-272.4-608.3-608.3s272.4-608.3,608.3-608.3s608.3,272.4,608.3,608.3
		S1083.3,1353.5,747.4,1353.5z"/>
</g>
<g id="svg29" inkscape:version="0.92.4 (unknown)" sodipodi:docname="pencil.svg" xmlns:cc="http://creativecommons.org/ns#" xmlns:dc="http://purl.org/dc/elements/1.1/" xmlns:inkscape="http://www.inkscape.org/namespaces/inkscape" xmlns:rdf="http://www.w3.org/1999/02/22-rdf-syntax-ns#" xmlns:sodipodi="http://sodipodi.sourceforge.net/DTD/sodipodi-0.dtd" xmlns:svg="http://www.w3.org/2000/svg">
	
		<sodipodi:namedview  bordercolor="#666666" borderopacity="1" gridtolerance="10" guidetolerance="10" id="namedview31" inkscape:current-layer="g37" inkscape:cx="754.41243" inkscape:cy="844.72077" inkscape:pageopacity="0" inkscape:pageshadow="2" inkscape:window-height="704" inkscape:window-maximized="1" inkscape:window-width="1366" inkscape:window-x="0" inkscape:window-y="27" inkscape:zoom="0.88804867" objecttolerance="10" pagecolor="#ffffff" showgrid="false">
		</sodipodi:namedview>
	<g id="layer3" inkscape:groupmode="layer" inkscape:label="ink_ext_XXXXXX 1">
		<path id="path5386" inkscape:connector-curvature="0" sodipodi:nodetypes="cccccccccccccc" class="st1" d="M1051.8,563.4
			c0.4,0.9,0.7,1.8,1.1,2.7c42.3,97.8,40.9,212.5-4.3,309.2c-42.8,93.8-125,168.5-222.8,201.4c-39.7,13.5-81.8,20.7-123.5,20.7
			c-110,0.7-219.1-49.7-290.3-133.8c-40-46.3-67.8-102.5-81.5-162c-9.8,3.3-19.6,6.4-29.3,9.7c21.8,91.8,76,175.9,151.7,232.7
			c72.4,55.2,163.4,85.5,254.5,84c110.8-1.2,220.4-49.2,295.6-130.6c78.9-83.7,120.1-201.5,109.7-316.1
			c-3.5-43.9-14.5-87-31.8-127.4C1071.1,557,1061.4,560.2,1051.8,563.4z"/>
	</g>
	<g id="g37" transform="matrix(1.3333333,0,0,-1.3333333,0,1496)" inkscape:groupmode="layer" inkscape:label="ink_ext_XXXXXX">
		<path id="XMLID_6_" class="st2" d="M715.1,748.6l75.4,50.7l49.5-73.6L764.6,675L715.1,748.6z M787.3,783.6l-56.6-38.1l37-54.9
			l56.6,38.1L787.3,783.6z"/>
		<g id="XMLID_2_">
			<path id="XMLID_3_" class="st2" d="M192.6,513.8l1.6,88.7l90.8-1.6l-1.6-88.7L192.6,513.8z M205.2,591.1L204,525l68.2-1.2
				l1.2,66.1L205.2,591.1z"/>
		</g>
		<g id="XMLID_9_">
			<path id="path877_1_" inkscape:connector-curvature="0" sodipodi:nodetypes="cc" class="st0" d="M390.6,189.6
				C564,275.7,736.8,356.9,917,445.9"/>
			<path id="XMLID_10_" class="st0" d="M388.1,194.8c89.7,44.5,181.3,88.7,269.8,131.5c83.4,40.3,169.6,81.9,256.6,124.8l5.1-10.4
				c-87-42.9-173.3-84.6-256.7-124.8c-88.5-42.7-180.1-87-269.7-131.5L388.1,194.8z"/>
		</g>
		<path id="path1097" inkscape:connector-curvature="0" class="st2" d="M309.6,747.5l20.1-123.2l1.3-2l304.4-257.8l3.7,0.4l0.4,3.7
			L464.6,627.5l-3.6,1c-14.8-6.7-32.8-2.2-42.3,11.6c-10.6,15.5-6.7,36.7,8.8,47.4c15.5,10.6,36.7,6.7,47.4-8.8
			c9.5-13.9,7.4-32.2-4.3-43.6l-0.4-3.8l174.9-258.8l3.6-1l1.7,3.4L522.8,754.4l-1.2,1.8l-100.6,68L309.6,747.5z"/>
		<path id="rect843-6-7" class="st3" d="M984.6,480.4L984.6,480.4c8.7-19.6-0.1-42.5-19.6-51.1l-1.9-0.8
			c-19.6-8.7-42.5,0.1-51.1,19.6l0,0c-8.7,19.6,0.1,42.5,19.6,51.1l1.9,0.8C953,508.7,975.9,500,984.6,480.4z"/>
		<path id="rect843-6-5" class="st3" d="M391.3,191.5L391.3,191.5c8.7-19.6-0.1-42.5-19.6-51.1l-1.9-0.8
			c-19.6-8.7-42.5,0.1-51.1,19.6l0,0c-8.7,19.6,0.1,42.5,19.6,51.1l1.9,0.8C359.8,219.9,382.7,211.1,391.3,191.5z"/>
		<path id="path1099" inkscape:connector-curvature="0" class="st0" d="M251.9,720.1L459,862.7c-9.9,17.5-21.6,36.9-35.2,58.2
			l-213.8-147C225.2,753.5,239,735.7,251.9,720.1"/>
		<polygon id="rect843-6" class="st3" points="679.9,366.4 693.1,336.7 708.1,303 710.1,298.5 706.1,296.7 670.9,281.1 641.3,267.9 
			637.4,266.2 635.6,270.2 622.3,300.1 608.1,332 605.9,336.9 610.7,339 640.5,352.3 675.7,367.9 678.6,369.2 		"/>
	</g>
</g>
</svg>
