<?xml version="1.0" encoding="utf-8"?>
<!-- Generator: Adobe Illustrator 24.0.2, SVG Export Plug-In . SVG Version: 6.00 Build 0)  -->
<svg version="1.1" xmlns="http://www.w3.org/2000/svg" xmlns:xlink="http://www.w3.org/1999/xlink" x="0px" y="0px"
	 viewBox="0 0 1496 1496" style="enable-background:new 0 0 1496 1496;" xml:space="preserve">
<style type="text/css">
	.st0{fill:#FFFFFF;}
	.st1{fill-rule:evenodd;clip-rule:evenodd;fill:#FF7900;}
	.st2{fill:#E2E2E2;}
	.st3{fill-rule:evenodd;clip-rule:evenodd;fill:#E2E2E2;fill-opacity:0;}
	.st4{fill:#FF7900;}
	.st5{fill-rule:evenodd;clip-rule:evenodd;fill:#E2E2E2;}
</style>
<g id="Layer_2">
	<path class="st0" d="M748,0L748,0C334.9,0,0,334.9,0,748v0c0,413.1,334.9,748,748,748h0c413.1,0,748-334.9,748-748v0
		C1496,334.9,1161.1,0,748,0z M1354.2,748c0,334.8-271.4,606.2-606.2,606.2h0c-334.8,0-606.2-271.4-606.2-606.2v0
		c0-334.8,271.4-606.2,606.2-606.2h0C1082.8,141.8,1354.2,413.2,1354.2,748L1354.2,748z"/>
</g>
<g id="svg29" inkscape:version="0.92.4 (unknown)" sodipodi:docname="pencil.svg" xmlns:cc="http://creativecommons.org/ns#" xmlns:dc="http://purl.org/dc/elements/1.1/" xmlns:inkscape="http://www.inkscape.org/namespaces/inkscape" xmlns:rdf="http://www.w3.org/1999/02/22-rdf-syntax-ns#" xmlns:sodipodi="http://sodipodi.sourceforge.net/DTD/sodipodi-0.dtd" xmlns:svg="http://www.w3.org/2000/svg">
	
		<sodipodi:namedview  bordercolor="#666666" borderopacity="1" gridtolerance="10" guidetolerance="10" id="namedview31" inkscape:current-layer="g37" inkscape:cx="754.41243" inkscape:cy="844.72077" inkscape:pageopacity="0" inkscape:pageshadow="2" inkscape:window-height="704" inkscape:window-maximized="1" inkscape:window-width="1366" inkscape:window-x="0" inkscape:window-y="27" inkscape:zoom="0.88804867" objecttolerance="10" pagecolor="#ffffff" showgrid="false">
		</sodipodi:namedview>
	<g id="layer3" inkscape:groupmode="layer" inkscape:label="ink_ext_XXXXXX 1">
		<path id="path5386" inkscape:connector-curvature="0" sodipodi:nodetypes="cccccccccccccc" class="st1" d="M440,566.5
			c-16.1,37.5-26.3,77.6-29.6,118.3c-9.7,106.4,28.6,215.8,101.9,293.5c69.9,75.7,171.6,120.2,274.5,121.3
			c84.6,1.4,169.1-26.7,236.4-78c70.3-52.7,120.6-130.8,140.8-216.1c-9.1-3-18.2-6-27.2-9c-12.7,55.2-38.5,107.5-75.7,150.4
			c-66.1,78.1-167.4,124.8-269.6,124.2c-38.7,0-77.9-6.7-114.7-19.2c-90.8-30.5-167.1-99.9-206.9-187c-41.9-89.7-43.2-196.4-4-287.1
			c0.3-0.9,0.7-1.6,1-2.5C458,572.5,449,569.5,440,566.5z"/>
	</g>
	<g id="g37" transform="matrix(1.3333333,0,0,-1.3333333,0,1496)" inkscape:groupmode="layer" inkscape:label="ink_ext_XXXXXX">
		<path id="XMLID_6_" class="st2" d="M361.9,676.8l-74.7,50.3l49.1,73l74.7-50.3L361.9,676.8z M302.8,730l56.1-37.7l36.6,54.4
			l-56.1,37.7L302.8,730z"/>
		<g id="XMLID_2_">
			<polygon id="rect843-3_1_" class="st3" points="844.2,599.4 923,597.9 923,597.9 			"/>
			<path id="XMLID_3_" class="st2" d="M838.8,515.6l-1.6,87.9l89.9,1.6l1.6-87.9L838.8,515.6z M848.5,592.5l1.2-65.5l67.6,1.2
				l-1.2,65.5L848.5,592.5z"/>
		</g>
		<g id="XMLID_9_">
			<path id="path877_1_" inkscape:connector-curvature="0" sodipodi:nodetypes="cc" d="M210.9,449.8
				c178.5-88.2,349.7-168.6,521.6-254"/>
			<path id="XMLID_10_" class="st4" d="M729.9,190.6c-88.8,44.1-179.5,87.9-267.3,130.3c-82.7,39.9-168.1,81.2-254.3,123.7l5.1,10.3
				c86.2-42.5,171.6-83.8,254.2-123.7C555.4,288.9,646,245.1,735,201L729.9,190.6z"/>
		</g>
		<path id="path1097" inkscape:connector-curvature="0" class="st2" d="M702.4,824.6l-99.7-67.3l-1.2-1.8L475,379.5l1.7-3.3l3.6,1
			l173.3,256.5l-0.4,3.8c-11.5,11.3-13.7,29.4-4.2,43.2c10.6,15.3,31.6,19.2,47,8.7c15.3-10.6,19.2-31.6,8.7-47
			c-9.4-13.7-27.2-18.2-41.9-11.5l-3.6-1L485.8,373.3l0.4-3.7l3.7-0.4l301.7,255.4l1.3,1.9l19.9,122L702.4,824.6z"/>
		<path id="rect843-6-7" class="st5" d="M194.6,503.5l1.8-0.8c19.4-8.6,28-31.3,19.5-50.6l0,0c-8.6-19.4-31.3-28-50.6-19.5l-1.8,0.8
			c-19.4,8.6-28,31.3-19.5,50.6l0,0C152.5,503.4,175.2,512.1,194.6,503.5z"/>
		<path id="rect843-6-5" class="st5" d="M782.4,217.2l1.8-0.8c19.4-8.6,28-31.3,19.5-50.6l0,0c-8.6-19.4-31.3-28-50.6-19.5l-1.8,0.8
			c-19.4,8.6-28,31.3-19.5,50.6l0,0C740.3,217.1,763,225.9,782.4,217.2z"/>
		<path id="path1099" inkscape:connector-curvature="0" class="st4" d="M869.9,721.6c12.7,15.4,26.5,33,41.4,53.2L699.6,920.4
			c-13.5-21.1-25.1-40.3-34.9-57.7L869.9,721.6"/>
		<polygon id="rect843-6" class="st5" points="447.1,373.9 450,372.6 484.9,357.1 514.4,343.9 519.1,341.8 517,337 502.9,305.3 
			489.7,275.7 487.9,271.7 484.1,273.4 454.7,286.5 419.8,302 415.9,303.7 417.9,308.3 432.8,341.7 445.9,371.1 		"/>
	</g>
</g>
</svg>
